<svg width="34" height="33" viewBox="0 0 34 33" fill="none" xmlns="http://www.w3.org/2000/svg">
<mask id="path-1-inside-1_108_9927" fill="white">
<path fill-rule="evenodd" clip-rule="evenodd" d="M19.1213 19.1213C17.9497 17.9497 16.0503 17.9497 14.8787 19.1213L1.35355 32.6464C1.15829 32.8417 0.841709 32.8417 0.646447 32.6464C0.451185 32.4512 0.451184 32.1346 0.646446 31.9393L14.1716 18.4142C15.3431 17.2426 15.3431 15.3431 14.1716 14.1716L1.35355 1.35355C1.15829 1.15829 1.15829 0.841709 1.35355 0.646447C1.54881 0.451185 1.8654 0.451185 2.06066 0.646447L14.8787 13.4645C16.0503 14.636 17.9497 14.636 19.1213 13.4645L31.9393 0.646447C32.1346 0.451185 32.4512 0.451184 32.6464 0.646446C32.8417 0.841709 32.8417 1.15829 32.6464 1.35355L19.8284 14.1716C18.6569 15.3431 18.6569 17.2426 19.8284 18.4142L33.3535 31.9393C33.5488 32.1346 33.5488 32.4512 33.3536 32.6464C33.1583 32.8417 32.8417 32.8417 32.6464 32.6464L19.1213 19.1213Z"/>
</mask>
<path fill-rule="evenodd" clip-rule="evenodd" d="M19.1213 19.1213C17.9497 17.9497 16.0503 17.9497 14.8787 19.1213L1.35355 32.6464C1.15829 32.8417 0.841709 32.8417 0.646447 32.6464C0.451185 32.4512 0.451184 32.1346 0.646446 31.9393L14.1716 18.4142C15.3431 17.2426 15.3431 15.3431 14.1716 14.1716L1.35355 1.35355C1.15829 1.15829 1.15829 0.841709 1.35355 0.646447C1.54881 0.451185 1.8654 0.451185 2.06066 0.646447L14.8787 13.4645C16.0503 14.636 17.9497 14.636 19.1213 13.4645L31.9393 0.646447C32.1346 0.451185 32.4512 0.451184 32.6464 0.646446C32.8417 0.841709 32.8417 1.15829 32.6464 1.35355L19.8284 14.1716C18.6569 15.3431 18.6569 17.2426 19.8284 18.4142L33.3535 31.9393C33.5488 32.1346 33.5488 32.4512 33.3536 32.6464C33.1583 32.8417 32.8417 32.8417 32.6464 32.6464L19.1213 19.1213Z" fill="url(#paint0_angular_108_9927)"/>
<path d="M19.8284 18.4142L17 21.2426L19.8284 18.4142ZM32.6464 1.35355L29.818 -1.47487L32.6464 1.35355ZM31.9393 0.646447L29.1109 -2.18198L31.9393 0.646447ZM19.1213 13.4645L16.2929 10.636L19.1213 13.4645ZM14.1716 14.1716L11.3431 17L14.1716 14.1716ZM0.646446 31.9393L3.47487 34.7678L0.646446 31.9393ZM1.35355 32.6464L-1.47487 29.818L1.35355 32.6464ZM4.18198 35.4749L17.7071 21.9497L12.0503 16.2929L-1.47487 29.818L4.18198 35.4749ZM11.3431 15.5858L-2.18198 29.1109L3.47487 34.7678L17 21.2426L11.3431 15.5858ZM17 11.3431L4.18198 -1.47487L-1.47488 4.18198L11.3431 17L17 11.3431ZM-0.767769 3.47487L12.0503 16.2929L17.7071 10.636L4.88909 -2.18198L-0.767769 3.47487ZM29.1109 -2.18198L16.2929 10.636L21.9497 16.2929L34.7678 3.47487L29.1109 -2.18198ZM22.6569 17L35.4749 4.18198L29.818 -1.47487L17 11.3431L22.6569 17ZM17 21.2426L30.5251 34.7678L36.182 29.1109L22.6569 15.5858L17 21.2426ZM35.4749 29.818L21.9497 16.2929L16.2929 21.9497L29.818 35.4749L35.4749 29.818ZM30.5251 29.818C31.892 28.4512 34.108 28.4512 35.4749 29.818L29.818 35.4749C31.5754 37.2322 34.4246 37.2322 36.182 35.4749L30.5251 29.818ZM30.5251 34.7678C29.1583 33.4009 29.1583 31.1849 30.5251 29.818L36.182 35.4749C37.9393 33.7175 37.9393 30.8683 36.182 29.1109L30.5251 34.7678ZM17 11.3431C14.2663 14.0768 14.2663 18.509 17 21.2426L22.6569 15.5858C23.0474 15.9763 23.0474 16.6095 22.6569 17L17 11.3431ZM29.818 3.47488C28.4512 2.10805 28.4512 -0.108033 29.818 -1.47487L35.4749 4.18198C37.2322 2.42462 37.2322 -0.424628 35.4749 -2.18198L29.818 3.47488ZM34.7678 3.47487C33.4009 4.84171 31.1849 4.84171 29.818 3.47488L35.4749 -2.18198C33.7175 -3.93934 30.8683 -3.93934 29.1109 -2.18198L34.7678 3.47487ZM12.0503 16.2929C14.7839 19.0266 19.2161 19.0266 21.9497 16.2929L16.2929 10.636C16.6834 10.2455 17.3166 10.2455 17.7071 10.636L12.0503 16.2929ZM4.18198 3.47487C2.81514 4.84171 0.599067 4.84171 -0.767769 3.47487L4.88909 -2.18198C3.13173 -3.93934 0.282484 -3.93934 -1.47488 -2.18198L4.18198 3.47487ZM4.18198 -1.47487C5.54882 -0.108037 5.54881 2.10804 4.18198 3.47487L-1.47488 -2.18198C-3.23223 -0.424622 -3.23224 2.42462 -1.47488 4.18198L4.18198 -1.47487ZM17 21.2426C19.7337 18.509 19.7337 14.0768 17 11.3431L11.3431 17C10.9526 16.6095 10.9526 15.9763 11.3431 15.5858L17 21.2426ZM3.47488 29.818C4.8417 31.1848 4.84171 33.4009 3.47487 34.7678L-2.18198 29.1109C-3.93935 30.8683 -3.93933 33.7175 -2.18198 35.4749L3.47488 29.818ZM17.7071 21.9497C17.3166 22.3403 16.6834 22.3403 16.2929 21.9497L21.9497 16.2929C19.2161 13.5592 14.7839 13.5592 12.0503 16.2929L17.7071 21.9497ZM-1.47487 29.818C-0.108037 28.4512 2.10804 28.4512 3.47488 29.818L-2.18198 35.4749C-0.424623 37.2322 2.42462 37.2322 4.18198 35.4749L-1.47487 29.818Z" fill="white" fill-opacity="0.3" mask="url(#path-1-inside-1_108_9927)"/>
<defs>
<radialGradient id="paint0_angular_108_9927" cx="0" cy="0" r="1" gradientUnits="userSpaceOnUse" gradientTransform="translate(16.505 16.6464) rotate(90) scale(16.1464 16.005)">
<stop offset="0.0729167" stop-color="#FBFBFD"/>
<stop offset="0.244792" stop-color="#ABABAB"/>
<stop offset="0.434957" stop-color="white"/>
<stop offset="0.532623" stop-color="#CACACA"/>
<stop offset="0.658692" stop-color="#E2E2E2"/>
<stop offset="0.708863" stop-color="#FAFBFC"/>
<stop offset="0.861413" stop-color="#C7C7C7"/>
<stop offset="0.921875" stop-color="#AFAFAF"/>
</radialGradient>
</defs>
</svg>
