<svg width="189" height="73" viewBox="0 0 189 73" fill="none" xmlns="http://www.w3.org/2000/svg">
<path d="M44.1481 37.8876L59.99 53.7717V58.4186C59.9778 58.7419 59.8731 59.055 59.6883 59.3205C59.5035 59.5861 59.2463 59.793 58.9473 59.9166C58.6484 60.0403 58.3202 60.0755 58.0018 60.0182C57.6834 59.9608 57.3881 59.8133 57.1511 59.5931L39.856 42.2642C39.5168 41.9226 39.1133 41.6516 38.6689 41.4666C38.2245 41.2817 37.7478 41.1864 37.2664 41.1864C36.785 41.1864 36.3084 41.2817 35.864 41.4666C35.4195 41.6516 35.0161 41.9226 34.6768 42.2642L17.3818 59.5931C17.1448 59.8133 16.8495 59.9608 16.5311 60.0182C16.2127 60.0755 15.8845 60.0403 15.5855 59.9166C15.2866 59.793 15.0294 59.5861 14.8446 59.3205C14.6598 59.055 14.5551 58.7419 14.5429 58.4186V53.7717L30.3509 37.9299C31.0397 37.2407 31.4266 36.3062 31.4266 35.3318C31.4266 34.3574 31.0397 33.4229 30.3509 32.7337L14.5344 16.8835V12.2365C14.5451 11.9125 14.6487 11.5984 14.8329 11.3316C15.0171 11.0648 15.2742 10.8567 15.5734 10.732C15.8727 10.6073 16.2015 10.5713 16.5206 10.6284C16.8398 10.6854 17.1358 10.833 17.3733 11.0537L34.643 28.3571C34.9823 28.6987 35.3857 28.9698 35.8302 29.1548C36.2746 29.3397 36.7512 29.4349 37.2326 29.4349C37.714 29.4349 38.1907 29.3397 38.6351 29.1548C39.0795 28.9698 39.483 28.6987 39.8223 28.3571L57.1342 11.0114C57.3717 10.7908 57.6677 10.6431 57.9869 10.5861C58.306 10.529 58.6348 10.565 58.9341 10.6897C59.2334 10.8144 59.4904 11.0226 59.6746 11.2893C59.8589 11.5561 59.9625 11.8702 59.9731 12.1942V16.8412L44.1481 32.6915C43.4614 33.3818 43.0759 34.3159 43.0759 35.2896C43.0759 36.2632 43.4614 37.1973 44.1481 37.8876ZM47.7812 17.948V14.4755H41.6641V24.0735L47.7812 17.948ZM34.1699 25.4592L35.809 27.0898C35.9952 27.2781 36.2169 27.4276 36.4613 27.5296C36.7056 27.6316 36.9678 27.6841 37.2326 27.6841C37.4974 27.6841 37.7596 27.6316 38.004 27.5296C38.2484 27.4276 38.4701 27.2781 38.6563 27.0898L40.2869 25.4592V14.4755H34.1699V25.4592ZM32.7927 24.0735V14.4755H26.6756V17.948L32.7927 24.0735ZM26.7939 38.3945L12.9291 52.2847H8.29911C7.97509 52.2741 7.66094 52.1705 7.39417 51.9862C7.1274 51.802 6.91926 51.545 6.79457 51.2457C6.66988 50.9465 6.63391 50.6176 6.69095 50.2985C6.74798 49.9794 6.89562 49.6834 7.11624 49.4458L10.1832 46.3788L0.627434 36.8061C0.225517 36.4037 -0.000244141 35.8583 -0.000244141 35.2896C-0.000244141 34.7208 0.225517 34.1754 0.627434 33.773L12.9883 21.3867C13.1868 21.188 13.4226 21.0304 13.6821 20.9228C13.9416 20.8152 14.2197 20.7598 14.5007 20.7598C14.7816 20.7598 15.0597 20.8152 15.3192 20.9228C15.5787 21.0304 15.8145 21.188 16.013 21.3867L28.5598 33.9588C28.9121 34.312 29.11 34.7906 29.11 35.2896C29.11 35.7885 28.9121 36.2671 28.5598 36.6203L26.7939 38.3945ZM7.76682 35.2938L14.526 42.053L21.2852 35.2938L14.526 28.5346L7.76682 35.2938ZM51.1101 56.619C51.512 57.0214 51.7378 57.5668 51.7378 58.1356C51.7378 58.7043 51.512 59.2498 51.1101 59.6522L38.7492 72.0384C38.5507 72.2371 38.3149 72.3948 38.0554 72.5024C37.7959 72.61 37.5178 72.6654 37.2369 72.6654C36.9559 72.6654 36.6778 72.61 36.4183 72.5024C36.1588 72.3948 35.923 72.2371 35.7245 72.0384L23.3552 59.686C22.9573 59.2814 22.7344 58.7368 22.7344 58.1694C22.7344 57.602 22.9573 57.0573 23.3552 56.6528L35.7245 44.2666C35.923 44.0678 36.1588 43.9102 36.4183 43.8026C36.6778 43.695 36.9559 43.6396 37.2369 43.6396C37.5178 43.6396 37.7959 43.695 38.0554 43.8026C38.3149 43.9102 38.5507 44.0678 38.7492 44.2666L51.1101 56.619ZM43.9369 58.1313L37.1777 51.3722L30.4185 58.1313L37.1777 64.8905L43.9369 58.1313ZM73.6942 36.8061L64.2145 46.3788L67.273 49.4458C67.4932 49.6828 67.6408 49.9781 67.6981 50.2965C67.7555 50.6149 67.7203 50.9431 67.5966 51.2421C67.4729 51.541 67.266 51.7982 67.0004 51.983C66.7349 52.1678 66.4219 52.2725 66.0986 52.2847H61.4601L47.6038 38.3945L45.8379 36.6203C45.4855 36.2671 45.2876 35.7885 45.2876 35.2896C45.2876 34.7906 45.4855 34.312 45.8379 33.9588L58.3847 21.3867C58.5832 21.188 58.8189 21.0304 59.0784 20.9228C59.3379 20.8152 59.6161 20.7598 59.897 20.7598C60.178 20.7598 60.4561 20.8152 60.7156 20.9228C60.9751 21.0304 61.2109 21.188 61.4094 21.3867L73.7702 33.773C74.1666 34.1809 74.3848 34.7296 74.3769 35.2983C74.369 35.8671 74.1356 36.4094 73.728 36.8061H73.6942ZM66.5548 35.2938L59.7956 28.5346L53.0364 35.2938L59.7956 42.053L66.5548 35.2938ZM26.2785 13.1237H48.1614L55.1994 6.07719C55.2913 5.9974 55.3514 5.88724 55.3687 5.7668C55.3861 5.64636 55.3596 5.52368 55.294 5.42119C55.2284 5.3187 55.1281 5.2432 55.0115 5.20852C54.8948 5.17384 54.7696 5.18229 54.6587 5.23229L50.0202 6.98124H24.4198L19.7813 5.23229C19.6703 5.18229 19.5451 5.17384 19.4285 5.20852C19.3118 5.2432 19.2116 5.3187 19.146 5.42119C19.0804 5.52368 19.0538 5.64636 19.0712 5.7668C19.0885 5.88724 19.1487 5.9974 19.2405 6.07719L26.2785 13.1237ZM38.3014 0.450193C38.1614 0.307646 37.9945 0.194404 37.8102 0.117112C37.626 0.0398203 37.4282 0 37.2284 0C37.0286 0 36.8308 0.0398203 36.6466 0.117112C36.4624 0.194404 36.2954 0.307646 36.1554 0.450193L31.086 5.51958H43.3455L38.3014 0.450193Z" fill="#EF3924"/>
<path d="M17.6776 35.2685L14.4755 38.4706L11.2817 35.2685C11.6992 34.8441 12.197 34.5072 12.746 34.2772C13.2951 34.0471 13.8844 33.9287 14.4797 33.9287C15.0749 33.9287 15.6643 34.0471 16.2133 34.2772C16.7623 34.5072 17.2601 34.8441 17.6776 35.2685ZM34.0517 58.0807L37.2539 61.2914L40.4476 58.0807C40.0273 57.6596 39.5276 57.3262 38.9774 57.0997C38.4272 56.8732 37.8376 56.7582 37.2426 56.7614C36.6477 56.7645 36.0592 56.8857 35.5115 57.118C34.9638 57.3503 34.4676 57.689 34.0517 58.1145V58.0807ZM63.0317 35.2685C62.6143 34.8503 62.1184 34.5185 61.5726 34.2922C61.0267 34.0658 60.4416 33.9493 59.8507 33.9493C59.2598 33.9493 58.6747 34.0658 58.1288 34.2922C57.583 34.5185 57.0871 34.8503 56.6697 35.2685L59.8718 38.4706L63.0655 35.2685H63.0317Z" fill="white"/>
<path d="M98.9139 46.5116H109.996C110.555 46.5024 111.098 46.6978 111.523 47.0611C111.73 47.2359 111.895 47.4548 112.006 47.7019C112.117 47.9489 112.171 48.2177 112.164 48.4884C112.173 48.7673 112.121 49.0448 112.01 49.3008C111.899 49.5569 111.733 49.7851 111.523 49.9691C111.105 50.3465 110.559 50.5512 109.996 50.5416H96.7615C96.1832 50.5396 95.6291 50.3089 95.2202 49.9C94.8113 49.4911 94.5806 48.937 94.5786 48.3587V29.1476C94.5708 28.8622 94.6239 28.5785 94.7345 28.3152C94.845 28.052 95.0105 27.8154 95.2198 27.6211C95.4207 27.4222 95.659 27.2652 95.9211 27.1591C96.1831 27.0529 96.4636 26.9999 96.7463 27.0029H109.981C110.547 26.9911 111.095 27.2021 111.508 27.5906C111.714 27.7724 111.878 27.997 111.989 28.2488C112.1 28.5005 112.154 28.7734 112.149 29.0484C112.159 29.3237 112.108 29.5978 112 29.8511C111.891 30.1045 111.729 30.3308 111.523 30.5138C111.098 30.8772 110.555 31.0726 109.996 31.0634H98.9139V36.3375H108.149C108.712 36.3286 109.257 36.5332 109.676 36.9099C109.882 37.0884 110.047 37.3102 110.157 37.5595C110.268 37.8089 110.323 38.0797 110.317 38.3525C110.327 38.6299 110.276 38.9062 110.167 39.1619C110.059 39.4177 109.897 39.6468 109.691 39.8332C109.272 40.2072 108.726 40.4089 108.165 40.398H98.9139V46.5116Z" fill="white"/>
<path d="M127.696 50.2056L123.33 45.1681L118.926 50.2056C118.652 50.5122 118.291 50.7287 117.892 50.8265C117.492 50.9242 117.072 50.8988 116.687 50.7534C116.303 50.6081 115.971 50.3496 115.735 50.0121C115.5 49.6745 115.373 49.2736 115.37 48.8622C115.362 48.383 115.528 47.9171 115.835 47.5495L120.644 42.077L116.003 36.7342C115.683 36.3744 115.504 35.9107 115.499 35.429C115.498 35.1664 115.55 34.9061 115.651 34.6636C115.751 34.4211 115.9 34.2013 116.087 34.017C116.284 33.8205 116.519 33.6659 116.777 33.5626C117.035 33.4593 117.312 33.4093 117.59 33.4157C117.868 33.4221 118.142 33.4848 118.395 33.6C118.649 33.7151 118.876 33.8803 119.064 34.0857L123.33 38.9858L127.559 34.0857C127.746 33.8655 127.98 33.6906 128.245 33.5743C128.509 33.4579 128.797 33.4031 129.085 33.414C129.623 33.4159 130.138 33.6276 130.522 34.004C130.905 34.3804 131.126 34.8918 131.138 35.429C131.142 35.9122 130.962 36.3786 130.635 36.7342L125.964 42.077L130.818 47.5495C131.145 47.9078 131.325 48.3768 131.322 48.8622C131.32 49.1289 131.265 49.3925 131.161 49.638C131.057 49.8836 130.906 50.1063 130.716 50.2934C130.526 50.4805 130.301 50.6284 130.054 50.7285C129.807 50.8287 129.543 50.8793 129.276 50.8772C128.979 50.8953 128.681 50.844 128.407 50.7275C128.133 50.6109 127.889 50.4322 127.696 50.2056Z" fill="white"/>
<path d="M135.481 56.0827V35.5588C135.477 35.274 135.532 34.9913 135.642 34.7286C135.753 34.466 135.916 34.2289 136.122 34.0323C136.32 33.8286 136.558 33.6673 136.82 33.5584C137.083 33.4495 137.365 33.3952 137.649 33.3988C137.914 33.3929 138.178 33.4421 138.424 33.5432C138.67 33.6444 138.892 33.7953 139.076 33.9865C139.251 34.1404 139.393 34.3278 139.494 34.5376C139.595 34.7474 139.652 34.9753 139.664 35.2078C141.241 33.922 143.249 33.2853 145.28 33.4271C147.31 33.5689 149.21 34.4785 150.594 35.971C152.165 37.6525 153.014 39.883 152.96 42.1839C152.988 43.3228 152.789 44.456 152.375 45.5174C151.961 46.5789 151.34 47.5473 150.548 48.3662C149.783 49.1822 148.855 49.828 147.824 50.262C146.793 50.6959 145.682 50.9082 144.564 50.8849C143.709 50.8867 142.863 50.7261 142.068 50.4117C141.443 50.1957 140.858 49.8785 140.335 49.4729L139.801 49.0379V56.0903C139.805 56.3752 139.75 56.6578 139.64 56.9205C139.53 57.1832 139.366 57.4203 139.16 57.6168C138.962 57.8218 138.725 57.9848 138.463 58.0961C138.2 58.2075 137.918 58.2649 137.634 58.2649C137.349 58.2649 137.067 58.2075 136.804 58.0961C136.542 57.9848 136.305 57.8218 136.107 57.6168C135.903 57.4181 135.741 57.1792 135.634 56.9152C135.526 56.6512 135.474 56.3677 135.481 56.0827ZM139.45 42.1762C139.427 42.8071 139.532 43.4361 139.759 44.0252C139.986 44.6143 140.33 45.1511 140.771 45.6033C141.206 46.0445 141.727 46.3914 142.302 46.6225C142.877 46.8536 143.494 46.9639 144.114 46.9465C144.744 46.9637 145.371 46.8505 145.955 46.6141C146.54 46.3777 147.069 46.0231 147.51 45.5727C147.949 45.1248 148.294 44.5935 148.525 44.0102C148.756 43.4269 148.867 42.8033 148.853 42.1762C148.886 40.8933 148.408 39.6499 147.525 38.7187C147.09 38.2544 146.56 37.8884 145.972 37.6449C145.383 37.4014 144.75 37.2861 144.114 37.3067C143.488 37.286 142.865 37.3984 142.286 37.6365C141.707 37.8747 141.185 38.2332 140.755 38.6882C140.319 39.1551 139.979 39.7035 139.755 40.302C139.531 40.9006 139.427 41.5375 139.45 42.1762Z" fill="white"/>
<path d="M161.111 40.5964V48.725C161.111 49.2958 160.884 49.8433 160.481 50.247C160.077 50.6506 159.53 50.8774 158.959 50.8774C158.388 50.8774 157.841 50.6506 157.437 50.247C157.033 49.8433 156.806 49.2958 156.806 48.725V41.039C156.82 39.0191 157.629 37.0859 159.057 35.6575C160.486 34.2292 162.419 33.4205 164.439 33.4065C165.736 33.3707 167.018 33.6957 168.141 34.3454C169.164 34.9712 169.667 35.6734 169.667 36.4595C169.673 36.7136 169.625 36.966 169.526 37.2001C169.428 37.4343 169.281 37.6449 169.095 37.8181C168.915 37.9987 168.701 38.1411 168.465 38.2368C168.229 38.3326 167.976 38.3797 167.721 38.3753C167.175 38.34 166.649 38.161 166.194 37.8563C165.648 37.5191 165.02 37.3395 164.378 37.3373C163.941 37.3262 163.506 37.4036 163.099 37.5649C162.692 37.7262 162.323 37.9681 162.012 38.2761C161.709 38.5796 161.473 38.9425 161.318 39.3419C161.163 39.7412 161.093 40.1684 161.111 40.5964Z" fill="white"/>
<path d="M185.489 35.948C186.324 36.7396 186.984 37.6958 187.43 38.7561C187.875 39.8164 188.096 40.9576 188.077 42.1075C188.095 43.263 187.875 44.4098 187.43 45.4763C186.985 46.5427 186.324 47.5058 185.489 48.3051C184.26 49.5471 182.69 50.3959 180.978 50.7436C179.265 51.0914 177.488 50.9225 175.872 50.2584C174.256 49.5943 172.874 48.4649 171.901 47.0137C170.928 45.5624 170.408 43.8547 170.408 42.1075C170.387 40.9564 170.604 39.8135 171.047 38.7508C171.49 37.6881 172.148 36.7285 172.98 35.9328C174.659 34.3122 176.901 33.4065 179.235 33.4065C181.568 33.4065 183.81 34.3122 185.489 35.9328V35.948ZM183.963 42.1075C183.97 41.485 183.852 40.8675 183.618 40.2909C183.383 39.7143 183.036 39.1902 182.597 38.7492C182.17 38.2941 181.653 37.9339 181.078 37.6919C180.504 37.45 179.885 37.3317 179.261 37.3448C178.635 37.3323 178.012 37.4507 177.434 37.6925C176.856 37.9344 176.334 38.2942 175.903 38.7492C175.458 39.1871 175.107 39.7103 174.869 40.2874C174.632 40.8645 174.514 41.4835 174.521 42.1075C174.504 43.3843 174.993 44.6162 175.88 45.5345C176.309 46.0012 176.832 46.3712 177.415 46.6199C177.998 46.8686 178.628 46.9904 179.261 46.977C179.888 46.9887 180.51 46.8661 181.085 46.6172C181.661 46.3684 182.176 45.9992 182.597 45.5345C183.483 44.6163 183.969 43.3837 183.948 42.1075H183.963Z" fill="white"/>
</svg>
