<svg width="214" height="155" viewBox="0 0 214 155" fill="none" xmlns="http://www.w3.org/2000/svg">
<g filter="url(#filter0_i_40_31056)">
<path d="M42.9628 2.26139L42.9628 69.5132H33.816V70.8897L66.5259 70.8897V69.5132H57.379L57.379 2.26139L60.9582 2.26139C63.4106 2.26139 65.5979 2.52358 67.5201 3.04796C69.4423 3.50679 71.1656 4.35891 72.69 5.60432C74.2145 6.78417 75.5733 8.45564 76.7663 10.6187C77.9594 12.7818 79.0531 15.5348 80.0473 18.8777H81.3398V0.884892L19.0021 0.884892L19.0021 18.8777H20.2946C21.2888 15.5348 22.3824 12.7818 23.5755 10.6187C24.7685 8.45564 26.1273 6.78417 27.6518 5.60432C29.1763 4.35891 30.8996 3.50679 32.8217 3.04796C34.7439 2.52358 36.9312 2.26139 39.3836 2.26139L42.9628 2.26139Z" fill="url(#paint0_angular_40_31056)"/>
<path d="M42.9628 2.26139L42.9628 69.5132H33.816V70.8897L66.5259 70.8897V69.5132H57.379L57.379 2.26139L60.9582 2.26139C63.4106 2.26139 65.5979 2.52358 67.5201 3.04796C69.4423 3.50679 71.1656 4.35891 72.69 5.60432C74.2145 6.78417 75.5733 8.45564 76.7663 10.6187C77.9594 12.7818 79.0531 15.5348 80.0473 18.8777H81.3398V0.884892L19.0021 0.884892L19.0021 18.8777H20.2946C21.2888 15.5348 22.3824 12.7818 23.5755 10.6187C24.7685 8.45564 26.1273 6.78417 27.6518 5.60432C29.1763 4.35891 30.8996 3.50679 32.8217 3.04796C34.7439 2.52358 36.9312 2.26139 39.3836 2.26139L42.9628 2.26139Z" fill="#171717"/>
<path d="M88.9036 69.5132V70.8897H113.859V69.5132H107.595V48.4724C107.595 45.4572 107.926 42.8353 108.589 40.6067C109.252 38.3781 110.114 36.51 111.174 35.0024C112.301 33.4948 113.593 32.3805 115.052 31.6595C116.51 30.8729 118.034 30.4796 119.625 30.4796C121.547 30.4796 123.072 31.1351 124.198 32.446C125.325 33.6915 125.889 35.6907 125.889 38.4436L125.889 69.5132H119.724V70.8897L144.679 70.8897V69.5132H138.018V41.7866C138.018 37.4604 136.792 34.052 134.34 31.5612C131.953 29.0703 128.573 27.8249 124.198 27.8249C121.216 27.8249 118.73 28.251 116.742 29.1031C114.82 29.9552 113.229 30.9712 111.97 32.1511C110.71 33.2654 109.749 34.4125 109.086 35.5923C108.49 36.7066 108.059 37.5588 107.794 38.1487H107.595V0L88.9036 0V1.3765L95.4655 1.3765L95.4655 69.5132H88.9036Z" fill="url(#paint1_angular_40_31056)"/>
<path d="M88.9036 69.5132V70.8897H113.859V69.5132H107.595V48.4724C107.595 45.4572 107.926 42.8353 108.589 40.6067C109.252 38.3781 110.114 36.51 111.174 35.0024C112.301 33.4948 113.593 32.3805 115.052 31.6595C116.51 30.8729 118.034 30.4796 119.625 30.4796C121.547 30.4796 123.072 31.1351 124.198 32.446C125.325 33.6915 125.889 35.6907 125.889 38.4436L125.889 69.5132H119.724V70.8897L144.679 70.8897V69.5132H138.018V41.7866C138.018 37.4604 136.792 34.052 134.34 31.5612C131.953 29.0703 128.573 27.8249 124.198 27.8249C121.216 27.8249 118.73 28.251 116.742 29.1031C114.82 29.9552 113.229 30.9712 111.97 32.1511C110.71 33.2654 109.749 34.4125 109.086 35.5923C108.49 36.7066 108.059 37.5588 107.794 38.1487H107.595V0L88.9036 0V1.3765L95.4655 1.3765L95.4655 69.5132H88.9036Z" fill="#171717"/>
<path d="M180.659 44.8345H164.751C164.817 43.1303 164.917 41.3605 165.049 39.5252C165.248 37.6243 165.646 35.8873 166.242 34.3142C166.839 32.6755 167.734 31.3317 168.927 30.283C170.186 29.2342 171.943 28.7098 174.196 28.7098C175.787 28.7098 177.013 29.0703 177.875 29.7914C178.803 30.5124 179.466 31.3973 179.863 32.446C180.261 33.4948 180.493 34.5436 180.559 35.5923C180.625 36.6411 180.659 37.526 180.659 38.247V44.8345ZM164.751 46.211H194.081C194.081 42.8681 193.484 40.0168 192.291 37.6571C191.098 35.2318 189.573 33.2654 187.718 31.7578C185.862 30.2502 183.774 29.1359 181.454 28.4149C179.134 27.6938 176.814 27.3333 174.494 27.3333C171.247 27.3333 168.198 27.9888 165.348 29.2998C162.564 30.5452 160.111 32.2166 157.99 34.3142C155.936 36.3461 154.312 38.7058 153.119 41.3933C151.926 44.0807 151.329 46.8337 151.329 49.6523C151.329 53.1919 151.959 56.3709 153.218 59.1895C154.477 61.9425 156.201 64.3022 158.388 66.2686C160.642 68.1695 163.26 69.6443 166.242 70.6931C169.225 71.6763 172.44 72.1679 175.886 72.1679C178.803 72.1679 181.288 71.7418 183.343 70.8897C185.398 70.1031 187.121 69.1199 188.513 67.9401C189.905 66.6947 190.999 65.3837 191.794 64.0072C192.589 62.5652 193.153 61.2214 193.484 59.976L192.092 59.4844C192.026 60.0743 191.694 60.992 191.098 62.2374C190.568 63.4828 189.706 64.761 188.513 66.072C187.386 67.3174 185.895 68.4317 184.039 69.4149C182.249 70.3981 180.029 70.8897 177.378 70.8897C174.395 70.8897 172.075 70.267 170.418 69.0216C168.761 67.7762 167.502 66.203 166.64 64.3022C165.778 62.3357 165.248 60.1727 165.049 57.813C164.851 55.3877 164.751 52.9952 164.751 50.6355V46.211Z" fill="url(#paint2_angular_40_31056)"/>
<path d="M180.659 44.8345H164.751C164.817 43.1303 164.917 41.3605 165.049 39.5252C165.248 37.6243 165.646 35.8873 166.242 34.3142C166.839 32.6755 167.734 31.3317 168.927 30.283C170.186 29.2342 171.943 28.7098 174.196 28.7098C175.787 28.7098 177.013 29.0703 177.875 29.7914C178.803 30.5124 179.466 31.3973 179.863 32.446C180.261 33.4948 180.493 34.5436 180.559 35.5923C180.625 36.6411 180.659 37.526 180.659 38.247V44.8345ZM164.751 46.211H194.081C194.081 42.8681 193.484 40.0168 192.291 37.6571C191.098 35.2318 189.573 33.2654 187.718 31.7578C185.862 30.2502 183.774 29.1359 181.454 28.4149C179.134 27.6938 176.814 27.3333 174.494 27.3333C171.247 27.3333 168.198 27.9888 165.348 29.2998C162.564 30.5452 160.111 32.2166 157.99 34.3142C155.936 36.3461 154.312 38.7058 153.119 41.3933C151.926 44.0807 151.329 46.8337 151.329 49.6523C151.329 53.1919 151.959 56.3709 153.218 59.1895C154.477 61.9425 156.201 64.3022 158.388 66.2686C160.642 68.1695 163.26 69.6443 166.242 70.6931C169.225 71.6763 172.44 72.1679 175.886 72.1679C178.803 72.1679 181.288 71.7418 183.343 70.8897C185.398 70.1031 187.121 69.1199 188.513 67.9401C189.905 66.6947 190.999 65.3837 191.794 64.0072C192.589 62.5652 193.153 61.2214 193.484 59.976L192.092 59.4844C192.026 60.0743 191.694 60.992 191.098 62.2374C190.568 63.4828 189.706 64.761 188.513 66.072C187.386 67.3174 185.895 68.4317 184.039 69.4149C182.249 70.3981 180.029 70.8897 177.378 70.8897C174.395 70.8897 172.075 70.267 170.418 69.0216C168.761 67.7762 167.502 66.203 166.64 64.3022C165.778 62.3357 165.248 60.1727 165.049 57.813C164.851 55.3877 164.751 52.9952 164.751 50.6355V46.211Z" fill="#171717"/>
<path d="M60.2498 103.676V83.6187H58.6591C58.4602 84.5364 58.1288 85.1263 57.6649 85.3885C57.2009 85.5851 56.5049 85.6835 55.577 85.6835C54.7153 85.6835 53.6548 85.4868 52.3955 85.0935C51.1361 84.7003 49.7111 84.307 48.1203 83.9137C46.5959 83.4549 44.9057 83.0288 43.0498 82.6355C41.2602 82.2422 39.3049 82.0456 37.1839 82.0456C32.9419 82.0456 28.6004 82.9305 24.1596 84.7002C19.785 86.4045 15.8081 88.8625 12.2289 92.0743C8.64973 95.2862 5.7002 99.1535 3.38035 103.676C1.12678 108.199 0 113.246 0 118.818C0 123.93 1.02736 128.683 3.08209 133.074C5.13681 137.466 7.85435 141.301 11.2347 144.578C14.6813 147.79 18.6582 150.346 23.1654 152.247C27.6725 154.082 32.3454 155 37.1839 155C39.3049 155 41.3265 154.803 43.2486 154.41C45.1708 154.082 46.9273 153.722 48.518 153.329C50.1751 152.87 51.6332 152.476 52.8926 152.149C54.1519 151.755 55.1793 151.559 55.9747 151.559C56.9026 151.559 57.5986 151.723 58.0626 152.05C58.5265 152.313 58.9242 152.837 59.2556 153.624H60.8464V132.779H59.2556C58.6591 135.467 57.7311 138.056 56.4718 140.547C55.2125 143.038 53.6548 145.266 51.799 147.233C49.9431 149.134 47.7889 150.674 45.3365 151.854C42.9504 153.034 40.266 153.624 37.2833 153.624C33.5716 153.624 30.3569 153.099 27.6394 152.05C24.9881 151.002 22.8008 149.166 21.0775 146.544C19.4205 143.922 18.1943 140.383 17.3989 135.926C16.6035 131.468 16.2058 125.831 16.2058 119.014C16.2058 113.836 16.4047 109.084 16.8023 104.758C17.2 100.366 18.0948 96.5971 19.4867 93.4508C20.9449 90.3046 23.0659 87.8465 25.8498 86.0768C28.6336 84.307 32.4448 83.4221 37.2833 83.4221C40.8625 83.4221 43.8452 84.0776 46.2313 85.3885C48.6837 86.6339 50.7053 88.2726 52.2961 90.3046C53.9531 92.271 55.2787 94.4668 56.273 96.8921C57.3335 99.2518 58.2283 101.513 58.9574 103.676H60.2498Z" fill="url(#paint3_angular_40_31056)"/>
<path d="M60.2498 103.676V83.6187H58.6591C58.4602 84.5364 58.1288 85.1263 57.6649 85.3885C57.2009 85.5851 56.5049 85.6835 55.577 85.6835C54.7153 85.6835 53.6548 85.4868 52.3955 85.0935C51.1361 84.7003 49.7111 84.307 48.1203 83.9137C46.5959 83.4549 44.9057 83.0288 43.0498 82.6355C41.2602 82.2422 39.3049 82.0456 37.1839 82.0456C32.9419 82.0456 28.6004 82.9305 24.1596 84.7002C19.785 86.4045 15.8081 88.8625 12.2289 92.0743C8.64973 95.2862 5.7002 99.1535 3.38035 103.676C1.12678 108.199 0 113.246 0 118.818C0 123.93 1.02736 128.683 3.08209 133.074C5.13681 137.466 7.85435 141.301 11.2347 144.578C14.6813 147.79 18.6582 150.346 23.1654 152.247C27.6725 154.082 32.3454 155 37.1839 155C39.3049 155 41.3265 154.803 43.2486 154.41C45.1708 154.082 46.9273 153.722 48.518 153.329C50.1751 152.87 51.6332 152.476 52.8926 152.149C54.1519 151.755 55.1793 151.559 55.9747 151.559C56.9026 151.559 57.5986 151.723 58.0626 152.05C58.5265 152.313 58.9242 152.837 59.2556 153.624H60.8464V132.779H59.2556C58.6591 135.467 57.7311 138.056 56.4718 140.547C55.2125 143.038 53.6548 145.266 51.799 147.233C49.9431 149.134 47.7889 150.674 45.3365 151.854C42.9504 153.034 40.266 153.624 37.2833 153.624C33.5716 153.624 30.3569 153.099 27.6394 152.05C24.9881 151.002 22.8008 149.166 21.0775 146.544C19.4205 143.922 18.1943 140.383 17.3989 135.926C16.6035 131.468 16.2058 125.831 16.2058 119.014C16.2058 113.836 16.4047 109.084 16.8023 104.758C17.2 100.366 18.0948 96.5971 19.4867 93.4508C20.9449 90.3046 23.0659 87.8465 25.8498 86.0768C28.6336 84.307 32.4448 83.4221 37.2833 83.4221C40.8625 83.4221 43.8452 84.0776 46.2313 85.3885C48.6837 86.6339 50.7053 88.2726 52.2961 90.3046C53.9531 92.271 55.2787 94.4668 56.273 96.8921C57.3335 99.2518 58.2283 101.513 58.9574 103.676H60.2498Z" fill="#171717"/>
<path d="M70.2596 82.7338V84.1103H76.9209L76.9209 152.247H70.2596V153.624L95.7117 153.624V152.247H89.0504L89.0504 82.7338H70.2596Z" fill="url(#paint4_angular_40_31056)"/>
<path d="M70.2596 82.7338V84.1103H76.9209L76.9209 152.247H70.2596V153.624L95.7117 153.624V152.247H89.0504L89.0504 82.7338H70.2596Z" fill="#171717"/>
<path d="M100.726 111.444V112.82H107.387L107.387 141.235C107.387 146.02 108.613 149.428 111.065 151.46C113.518 153.427 117.064 154.41 121.704 154.41C123.162 154.41 124.653 154.213 126.178 153.82C127.702 153.492 129.127 152.968 130.453 152.247C131.845 151.46 133.071 150.543 134.131 149.494C135.192 148.38 135.987 147.102 136.518 145.659H136.716V153.624H155.209V152.247H148.647V111.444L129.956 111.444V112.82L136.518 112.82V138.187C136.518 139.957 136.252 141.661 135.722 143.3C135.258 144.938 134.562 146.381 133.634 147.626C132.773 148.806 131.712 149.756 130.453 150.477C129.193 151.198 127.802 151.559 126.277 151.559C123.758 151.559 122.002 150.707 121.008 149.002C120.013 147.233 119.516 145.102 119.516 142.612L119.516 111.444H100.726Z" fill="url(#paint5_angular_40_31056)"/>
<path d="M100.726 111.444V112.82H107.387L107.387 141.235C107.387 146.02 108.613 149.428 111.065 151.46C113.518 153.427 117.064 154.41 121.704 154.41C123.162 154.41 124.653 154.213 126.178 153.82C127.702 153.492 129.127 152.968 130.453 152.247C131.845 151.46 133.071 150.543 134.131 149.494C135.192 148.38 135.987 147.102 136.518 145.659H136.716V153.624H155.209V152.247H148.647V111.444L129.956 111.444V112.82L136.518 112.82V138.187C136.518 139.957 136.252 141.661 135.722 143.3C135.258 144.938 134.562 146.381 133.634 147.626C132.773 148.806 131.712 149.756 130.453 150.477C129.193 151.198 127.802 151.559 126.277 151.559C123.758 151.559 122.002 150.707 121.008 149.002C120.013 147.233 119.516 145.102 119.516 142.612L119.516 111.444H100.726Z" fill="#171717"/>
<path d="M180.594 132.583C180.594 130.42 180.694 128.093 180.892 125.602C181.158 123.111 181.655 120.817 182.384 118.719C183.113 116.622 184.206 114.885 185.665 113.508C187.123 112.132 189.078 111.444 191.531 111.444C193.254 111.444 194.679 111.804 195.806 112.525C196.933 113.246 197.86 114.426 198.59 116.065C199.319 117.703 199.816 119.899 200.081 122.652C200.412 125.34 200.578 128.65 200.578 132.583C200.578 135.795 200.479 138.711 200.28 141.333C200.147 143.89 199.783 146.086 199.186 147.921C198.656 149.756 197.827 151.165 196.701 152.149C195.64 153.132 194.182 153.624 192.326 153.624C189.542 153.624 187.355 152.935 185.764 151.559C184.24 150.117 183.08 148.347 182.284 146.249C181.489 144.086 180.992 141.792 180.793 139.367C180.66 136.876 180.594 134.615 180.594 132.583ZM168.465 84.1103L168.465 152.247H161.903V153.624H180.395V146.348H180.594C181.655 149.101 183.113 151.231 184.969 152.739C186.891 154.181 189.343 154.902 192.326 154.902C195.574 154.902 198.523 154.279 201.175 153.034C203.826 151.788 206.079 150.149 207.935 148.118C209.857 146.02 211.349 143.628 212.409 140.94C213.47 138.253 214 135.434 214 132.484C214 130.19 213.569 127.732 212.708 125.11C211.912 122.488 210.62 120.063 208.83 117.835C207.107 115.606 204.886 113.771 202.169 112.329C199.451 110.821 196.17 110.067 192.326 110.067C189.343 110.067 186.924 110.755 185.068 112.132C183.212 113.508 181.787 115.573 180.793 118.326H180.594L180.594 82.7338H161.903V84.1103H168.465Z" fill="url(#paint6_angular_40_31056)"/>
<path d="M180.594 132.583C180.594 130.42 180.694 128.093 180.892 125.602C181.158 123.111 181.655 120.817 182.384 118.719C183.113 116.622 184.206 114.885 185.665 113.508C187.123 112.132 189.078 111.444 191.531 111.444C193.254 111.444 194.679 111.804 195.806 112.525C196.933 113.246 197.86 114.426 198.59 116.065C199.319 117.703 199.816 119.899 200.081 122.652C200.412 125.34 200.578 128.65 200.578 132.583C200.578 135.795 200.479 138.711 200.28 141.333C200.147 143.89 199.783 146.086 199.186 147.921C198.656 149.756 197.827 151.165 196.701 152.149C195.64 153.132 194.182 153.624 192.326 153.624C189.542 153.624 187.355 152.935 185.764 151.559C184.24 150.117 183.08 148.347 182.284 146.249C181.489 144.086 180.992 141.792 180.793 139.367C180.66 136.876 180.594 134.615 180.594 132.583ZM168.465 84.1103L168.465 152.247H161.903V153.624H180.395V146.348H180.594C181.655 149.101 183.113 151.231 184.969 152.739C186.891 154.181 189.343 154.902 192.326 154.902C195.574 154.902 198.523 154.279 201.175 153.034C203.826 151.788 206.079 150.149 207.935 148.118C209.857 146.02 211.349 143.628 212.409 140.94C213.47 138.253 214 135.434 214 132.484C214 130.19 213.569 127.732 212.708 125.11C211.912 122.488 210.62 120.063 208.83 117.835C207.107 115.606 204.886 113.771 202.169 112.329C199.451 110.821 196.17 110.067 192.326 110.067C189.343 110.067 186.924 110.755 185.068 112.132C183.212 113.508 181.787 115.573 180.793 118.326H180.594L180.594 82.7338H161.903V84.1103H168.465Z" fill="#171717"/>
</g>
<defs>
<filter id="filter0_i_40_31056" x="0" y="0" width="214" height="159" filterUnits="userSpaceOnUse" color-interpolation-filters="sRGB">
<feFlood flood-opacity="0" result="BackgroundImageFix"/>
<feBlend mode="normal" in="SourceGraphic" in2="BackgroundImageFix" result="shape"/>
<feColorMatrix in="SourceAlpha" type="matrix" values="0 0 0 0 0 0 0 0 0 0 0 0 0 0 0 0 0 0 127 0" result="hardAlpha"/>
<feOffset dy="4"/>
<feGaussianBlur stdDeviation="2"/>
<feComposite in2="hardAlpha" operator="arithmetic" k2="-1" k3="1"/>
<feColorMatrix type="matrix" values="0 0 0 0 0 0 0 0 0 0 0 0 0 0 0 0 0 0 0.85 0"/>
<feBlend mode="normal" in2="shape" result="effect1_innerShadow_40_31056"/>
</filter>
<radialGradient id="paint0_angular_40_31056" cx="0" cy="0" r="1" gradientUnits="userSpaceOnUse" gradientTransform="translate(102.996 79.2819) rotate(-170.079) scale(216.093 283.202)">
<stop offset="0.102502"/>
<stop offset="0.362857" stop-color="#323232"/>
<stop offset="0.370506" stop-color="#1B1B1B"/>
<stop offset="0.865074"/>
<stop offset="0.870611" stop-color="#2C2C2C"/>
</radialGradient>
<radialGradient id="paint1_angular_40_31056" cx="0" cy="0" r="1" gradientUnits="userSpaceOnUse" gradientTransform="translate(102.996 79.2819) rotate(-170.079) scale(216.093 283.202)">
<stop offset="0.102502"/>
<stop offset="0.362857" stop-color="#323232"/>
<stop offset="0.370506" stop-color="#1B1B1B"/>
<stop offset="0.865074"/>
<stop offset="0.870611" stop-color="#2C2C2C"/>
</radialGradient>
<radialGradient id="paint2_angular_40_31056" cx="0" cy="0" r="1" gradientUnits="userSpaceOnUse" gradientTransform="translate(102.996 79.2819) rotate(-170.079) scale(216.093 283.202)">
<stop offset="0.102502"/>
<stop offset="0.362857" stop-color="#323232"/>
<stop offset="0.370506" stop-color="#1B1B1B"/>
<stop offset="0.865074"/>
<stop offset="0.870611" stop-color="#2C2C2C"/>
</radialGradient>
<radialGradient id="paint3_angular_40_31056" cx="0" cy="0" r="1" gradientUnits="userSpaceOnUse" gradientTransform="translate(102.996 79.2819) rotate(-170.079) scale(216.093 283.202)">
<stop offset="0.102502"/>
<stop offset="0.362857" stop-color="#323232"/>
<stop offset="0.370506" stop-color="#1B1B1B"/>
<stop offset="0.865074"/>
<stop offset="0.870611" stop-color="#2C2C2C"/>
</radialGradient>
<radialGradient id="paint4_angular_40_31056" cx="0" cy="0" r="1" gradientUnits="userSpaceOnUse" gradientTransform="translate(102.996 79.2819) rotate(-170.079) scale(216.093 283.202)">
<stop offset="0.102502"/>
<stop offset="0.362857" stop-color="#323232"/>
<stop offset="0.370506" stop-color="#1B1B1B"/>
<stop offset="0.865074"/>
<stop offset="0.870611" stop-color="#2C2C2C"/>
</radialGradient>
<radialGradient id="paint5_angular_40_31056" cx="0" cy="0" r="1" gradientUnits="userSpaceOnUse" gradientTransform="translate(102.996 79.2819) rotate(-170.079) scale(216.093 283.202)">
<stop offset="0.102502"/>
<stop offset="0.362857" stop-color="#323232"/>
<stop offset="0.370506" stop-color="#1B1B1B"/>
<stop offset="0.865074"/>
<stop offset="0.870611" stop-color="#2C2C2C"/>
</radialGradient>
<radialGradient id="paint6_angular_40_31056" cx="0" cy="0" r="1" gradientUnits="userSpaceOnUse" gradientTransform="translate(102.996 79.2819) rotate(-170.079) scale(216.093 283.202)">
<stop offset="0.102502"/>
<stop offset="0.362857" stop-color="#323232"/>
<stop offset="0.370506" stop-color="#1B1B1B"/>
<stop offset="0.865074"/>
<stop offset="0.870611" stop-color="#2C2C2C"/>
</radialGradient>
</defs>
</svg>
