<svg width="921" height="895" viewBox="0 0 921 895" fill="none" xmlns="http://www.w3.org/2000/svg">
<g clip-path="url(#clip0_40_31044)">
<g filter="url(#filter0_i_40_31044)">
<path d="M460.499 205.397L290.55 286.983L248.662 470.279L366.185 617.282H554.814L672.425 470.279L630.537 286.983L460.499 205.397ZM305.707 298.963L460.499 224.665L615.292 298.963L653.539 465.942L546.406 599.932H374.711L267.489 466.001L305.707 298.963Z" fill="url(#paint0_angular_40_31044)"/>
<path d="M460.499 205.397L290.55 286.983L248.662 470.279L366.185 617.282H554.814L672.425 470.279L630.537 286.983L460.499 205.397ZM305.707 298.963L460.499 224.665L615.292 298.963L653.539 465.942L546.406 599.932H374.711L267.489 466.001L305.707 298.963Z" fill="#171717"/>
</g>
<g filter="url(#filter1_i_40_31044)">
<path d="M196 513.89L162.135 661.896H314.382L196 513.89ZM173.088 653.044L200.5 533.335L296.265 653.044H173.088Z" fill="url(#paint1_angular_40_31044)"/>
<path d="M196 513.89L162.135 661.896H314.382L196 513.89ZM173.088 653.044L200.5 533.335L296.265 653.044H173.088Z" fill="#171717"/>
</g>
<g filter="url(#filter2_i_40_31044)">
<path d="M751.91 480.4L718.163 522.595L747.943 653.044L340.609 655.11L371.84 694.354H373.972L800.251 692.2L751.91 480.4ZM727.606 524.66L747.44 499.875L789.446 683.377L375.955 685.502L358.578 663.785L758.866 661.897L727.606 524.66Z" fill="url(#paint2_angular_40_31044)"/>
<path d="M751.91 480.4L718.163 522.595L747.943 653.044L340.609 655.11L371.84 694.354H373.972L800.251 692.2L751.91 480.4ZM727.606 524.66L747.44 499.875L789.446 683.377L375.955 685.502L358.578 663.785L758.866 661.897L727.606 524.66Z" fill="#171717"/>
</g>
<g filter="url(#filter3_i_40_31044)">
<path d="M417.991 141.013L416.096 141.957L36.8262 325.696L172.999 495.773L184.425 445.907L102.071 343.223L468.286 165.297L417.991 141.013ZM50.325 328.765L417.902 150.691L448.126 165.209L88.4533 340.036L174.864 448.061L168.41 476.21L50.325 328.765Z" fill="url(#paint3_angular_40_31044)"/>
<path d="M417.991 141.013L416.096 141.957L36.8262 325.696L172.999 495.773L184.425 445.907L102.071 343.223L468.286 165.297L417.991 141.013ZM50.325 328.765L417.902 150.691L448.126 165.209L88.4533 340.036L174.864 448.061L168.41 476.21L50.325 328.765Z" fill="#171717"/>
</g>
<g filter="url(#filter4_i_40_31044)">
<path d="M271.93 31.8085L223.322 244.257L272.078 220.859L301 94.6285L669.021 268.955L656.617 214.692L654.693 213.777L271.93 31.8085ZM235.874 228.471L278.028 44.3489L648.921 220.741L656.381 253.198L294.902 81.97L264.529 214.751L235.874 228.471Z" fill="url(#paint4_angular_40_31044)"/>
<path d="M271.93 31.8085L223.322 244.257L272.078 220.859L301 94.6285L669.021 268.955L656.617 214.692L654.693 213.777L271.93 31.8085ZM235.874 228.471L278.028 44.3489L648.921 220.741L656.381 253.198L294.902 81.97L264.529 214.751L235.874 228.471Z" fill="#171717"/>
</g>
<g filter="url(#filter5_i_40_31044)">
<path d="M649.04 31.7789L452.182 126.201L503.01 150.603L504.904 149.688L620.029 94.4217L712.626 489.813L746.166 447.884L745.693 445.848L649.04 31.7789ZM472.312 126.201L643.001 44.2602L736.693 445.907L717.037 470.486L626.068 81.9404L503.01 140.954L472.312 126.201Z" fill="url(#paint5_angular_40_31044)"/>
<path d="M649.04 31.7789L452.182 126.201L503.01 150.603L504.904 149.688L620.029 94.4217L712.626 489.813L746.166 447.884L745.693 445.848L649.04 31.7789ZM472.312 126.201L643.001 44.2602L736.693 445.907L717.037 470.486L626.068 81.9404L503.01 140.954L472.312 126.201Z" fill="#171717"/>
</g>
<g filter="url(#filter6_i_40_31044)">
<path d="M204.911 474.941L193.514 524.749L460.53 855.225L596.259 685.502H544.957L460.501 791.136L204.911 474.941ZM202.987 522.565L209.44 494.416L460.53 805.063L549.161 694.354H578.112L460.501 841.297L202.987 522.565Z" fill="url(#paint6_angular_40_31044)"/>
<path d="M204.911 474.941L193.514 524.749L460.53 855.225L596.259 685.502H544.957L460.501 791.136L204.911 474.941ZM202.987 522.565L209.44 494.416L460.53 805.063L549.161 694.354H578.112L460.501 841.297L202.987 522.565Z" fill="#171717"/>
</g>
<g filter="url(#filter7_i_40_31044)">
<path d="M261.777 256.827L213.318 280.078L212.844 282.144L120.75 692.141H338.626L307.425 653.044H173.058L261.777 256.827ZM220.896 286.098L249.315 272.466L162.135 661.896H303.221L320.48 683.466H131.673L220.896 286.098Z" fill="url(#paint7_angular_40_31044)"/>
<path d="M261.777 256.827L213.318 280.078L212.844 282.144L120.75 692.141H338.626L307.425 653.044H173.058L261.777 256.827ZM220.896 286.098L249.315 272.466L162.135 661.896H303.221L320.48 683.466H131.673L220.896 286.098Z" fill="#171717"/>
</g>
<g filter="url(#filter8_i_40_31044)">
<path d="M687.553 231.274L700.105 286.098L818.93 343.223L566.537 661.896H617.809L619.112 660.244L884.174 325.519L687.553 231.274ZM707.683 280.079L700.105 246.972L870.557 328.794L613.576 653.044H584.565L832.547 339.889L707.683 280.079Z" fill="url(#paint8_angular_40_31044)"/>
<path d="M687.553 231.274L700.105 286.098L818.93 343.223L566.537 661.896H617.809L619.112 660.244L884.174 325.519L687.553 231.274ZM707.683 280.079L700.105 246.972L870.557 328.794L613.576 653.044H584.565L832.547 339.889L707.683 280.079Z" fill="#171717"/>
</g>
<g filter="url(#filter9_i_40_31044)">
<path d="M665.44 4.75768e-06H255.56L0 319.411L0.473644 321.447L91.206 717.723L460.5 895L829.794 717.723L830.268 715.687L921 319.411L919.697 317.788L665.44 4.75768e-06ZM259.882 8.70454H661.236L911.557 321.477L822.216 711.704L460.5 885.322L98.7843 711.704L9.44327 321.565L259.882 8.70454Z" fill="url(#paint9_angular_40_31044)"/>
<path d="M665.44 4.75768e-06H255.56L0 319.411L0.473644 321.447L91.206 717.723L460.5 895L829.794 717.723L830.268 715.687L921 319.411L919.697 317.788L665.44 4.75768e-06ZM259.882 8.70454H661.236L911.557 321.477L822.216 711.704L460.5 885.322L98.7843 711.704L9.44327 321.565L259.882 8.70454Z" fill="#171717"/>
</g>
<g filter="url(#filter10_i_40_31044)">
<path d="M652.623 26.556H268.379L28.834 325.961L114.327 699.37L460.501 865.493L806.675 699.37L892.168 325.961L652.623 26.556ZM277.23 44.8503H643.771L872.305 330.506L790.749 686.682L460.501 845.222L130.253 686.682L48.6974 330.506L277.23 44.8503Z" fill="url(#paint10_angular_40_31044)"/>
<path d="M652.623 26.556H268.379L28.834 325.961L114.327 699.37L460.501 865.493L806.675 699.37L892.168 325.961L652.623 26.556ZM277.23 44.8503H643.771L872.305 330.506L790.749 686.682L460.501 845.222L130.253 686.682L48.6974 330.506L277.23 44.8503Z" fill="#171717"/>
</g>
</g>
<defs>
<filter id="filter0_i_40_31044" x="248.662" y="205.397" width="423.764" height="415.885" filterUnits="userSpaceOnUse" color-interpolation-filters="sRGB">
<feFlood flood-opacity="0" result="BackgroundImageFix"/>
<feBlend mode="normal" in="SourceGraphic" in2="BackgroundImageFix" result="shape"/>
<feColorMatrix in="SourceAlpha" type="matrix" values="0 0 0 0 0 0 0 0 0 0 0 0 0 0 0 0 0 0 127 0" result="hardAlpha"/>
<feOffset dy="4"/>
<feGaussianBlur stdDeviation="2"/>
<feComposite in2="hardAlpha" operator="arithmetic" k2="-1" k3="1"/>
<feColorMatrix type="matrix" values="0 0 0 0 0 0 0 0 0 0 0 0 0 0 0 0 0 0 0.85 0"/>
<feBlend mode="normal" in2="shape" result="effect1_innerShadow_40_31044"/>
</filter>
<filter id="filter1_i_40_31044" x="162.135" y="513.89" width="152.246" height="152.006" filterUnits="userSpaceOnUse" color-interpolation-filters="sRGB">
<feFlood flood-opacity="0" result="BackgroundImageFix"/>
<feBlend mode="normal" in="SourceGraphic" in2="BackgroundImageFix" result="shape"/>
<feColorMatrix in="SourceAlpha" type="matrix" values="0 0 0 0 0 0 0 0 0 0 0 0 0 0 0 0 0 0 127 0" result="hardAlpha"/>
<feOffset dy="4"/>
<feGaussianBlur stdDeviation="2"/>
<feComposite in2="hardAlpha" operator="arithmetic" k2="-1" k3="1"/>
<feColorMatrix type="matrix" values="0 0 0 0 0 0 0 0 0 0 0 0 0 0 0 0 0 0 0.85 0"/>
<feBlend mode="normal" in2="shape" result="effect1_innerShadow_40_31044"/>
</filter>
<filter id="filter2_i_40_31044" x="340.609" y="480.4" width="459.641" height="217.954" filterUnits="userSpaceOnUse" color-interpolation-filters="sRGB">
<feFlood flood-opacity="0" result="BackgroundImageFix"/>
<feBlend mode="normal" in="SourceGraphic" in2="BackgroundImageFix" result="shape"/>
<feColorMatrix in="SourceAlpha" type="matrix" values="0 0 0 0 0 0 0 0 0 0 0 0 0 0 0 0 0 0 127 0" result="hardAlpha"/>
<feOffset dy="4"/>
<feGaussianBlur stdDeviation="2"/>
<feComposite in2="hardAlpha" operator="arithmetic" k2="-1" k3="1"/>
<feColorMatrix type="matrix" values="0 0 0 0 0 0 0 0 0 0 0 0 0 0 0 0 0 0 0.85 0"/>
<feBlend mode="normal" in2="shape" result="effect1_innerShadow_40_31044"/>
</filter>
<filter id="filter3_i_40_31044" x="36.8262" y="141.013" width="431.459" height="358.76" filterUnits="userSpaceOnUse" color-interpolation-filters="sRGB">
<feFlood flood-opacity="0" result="BackgroundImageFix"/>
<feBlend mode="normal" in="SourceGraphic" in2="BackgroundImageFix" result="shape"/>
<feColorMatrix in="SourceAlpha" type="matrix" values="0 0 0 0 0 0 0 0 0 0 0 0 0 0 0 0 0 0 127 0" result="hardAlpha"/>
<feOffset dy="4"/>
<feGaussianBlur stdDeviation="2"/>
<feComposite in2="hardAlpha" operator="arithmetic" k2="-1" k3="1"/>
<feColorMatrix type="matrix" values="0 0 0 0 0 0 0 0 0 0 0 0 0 0 0 0 0 0 0.85 0"/>
<feBlend mode="normal" in2="shape" result="effect1_innerShadow_40_31044"/>
</filter>
<filter id="filter4_i_40_31044" x="223.322" y="31.8086" width="445.699" height="241.146" filterUnits="userSpaceOnUse" color-interpolation-filters="sRGB">
<feFlood flood-opacity="0" result="BackgroundImageFix"/>
<feBlend mode="normal" in="SourceGraphic" in2="BackgroundImageFix" result="shape"/>
<feColorMatrix in="SourceAlpha" type="matrix" values="0 0 0 0 0 0 0 0 0 0 0 0 0 0 0 0 0 0 127 0" result="hardAlpha"/>
<feOffset dy="4"/>
<feGaussianBlur stdDeviation="2"/>
<feComposite in2="hardAlpha" operator="arithmetic" k2="-1" k3="1"/>
<feColorMatrix type="matrix" values="0 0 0 0 0 0 0 0 0 0 0 0 0 0 0 0 0 0 0.85 0"/>
<feBlend mode="normal" in2="shape" result="effect1_innerShadow_40_31044"/>
</filter>
<filter id="filter5_i_40_31044" x="452.182" y="31.7788" width="293.984" height="462.034" filterUnits="userSpaceOnUse" color-interpolation-filters="sRGB">
<feFlood flood-opacity="0" result="BackgroundImageFix"/>
<feBlend mode="normal" in="SourceGraphic" in2="BackgroundImageFix" result="shape"/>
<feColorMatrix in="SourceAlpha" type="matrix" values="0 0 0 0 0 0 0 0 0 0 0 0 0 0 0 0 0 0 127 0" result="hardAlpha"/>
<feOffset dy="4"/>
<feGaussianBlur stdDeviation="2"/>
<feComposite in2="hardAlpha" operator="arithmetic" k2="-1" k3="1"/>
<feColorMatrix type="matrix" values="0 0 0 0 0 0 0 0 0 0 0 0 0 0 0 0 0 0 0.85 0"/>
<feBlend mode="normal" in2="shape" result="effect1_innerShadow_40_31044"/>
</filter>
<filter id="filter6_i_40_31044" x="193.514" y="474.941" width="402.744" height="384.283" filterUnits="userSpaceOnUse" color-interpolation-filters="sRGB">
<feFlood flood-opacity="0" result="BackgroundImageFix"/>
<feBlend mode="normal" in="SourceGraphic" in2="BackgroundImageFix" result="shape"/>
<feColorMatrix in="SourceAlpha" type="matrix" values="0 0 0 0 0 0 0 0 0 0 0 0 0 0 0 0 0 0 127 0" result="hardAlpha"/>
<feOffset dy="4"/>
<feGaussianBlur stdDeviation="2"/>
<feComposite in2="hardAlpha" operator="arithmetic" k2="-1" k3="1"/>
<feColorMatrix type="matrix" values="0 0 0 0 0 0 0 0 0 0 0 0 0 0 0 0 0 0 0.85 0"/>
<feBlend mode="normal" in2="shape" result="effect1_innerShadow_40_31044"/>
</filter>
<filter id="filter7_i_40_31044" x="120.75" y="256.827" width="217.877" height="439.314" filterUnits="userSpaceOnUse" color-interpolation-filters="sRGB">
<feFlood flood-opacity="0" result="BackgroundImageFix"/>
<feBlend mode="normal" in="SourceGraphic" in2="BackgroundImageFix" result="shape"/>
<feColorMatrix in="SourceAlpha" type="matrix" values="0 0 0 0 0 0 0 0 0 0 0 0 0 0 0 0 0 0 127 0" result="hardAlpha"/>
<feOffset dy="4"/>
<feGaussianBlur stdDeviation="2"/>
<feComposite in2="hardAlpha" operator="arithmetic" k2="-1" k3="1"/>
<feColorMatrix type="matrix" values="0 0 0 0 0 0 0 0 0 0 0 0 0 0 0 0 0 0 0.85 0"/>
<feBlend mode="normal" in2="shape" result="effect1_innerShadow_40_31044"/>
</filter>
<filter id="filter8_i_40_31044" x="566.537" y="231.274" width="317.637" height="434.622" filterUnits="userSpaceOnUse" color-interpolation-filters="sRGB">
<feFlood flood-opacity="0" result="BackgroundImageFix"/>
<feBlend mode="normal" in="SourceGraphic" in2="BackgroundImageFix" result="shape"/>
<feColorMatrix in="SourceAlpha" type="matrix" values="0 0 0 0 0 0 0 0 0 0 0 0 0 0 0 0 0 0 127 0" result="hardAlpha"/>
<feOffset dy="4"/>
<feGaussianBlur stdDeviation="2"/>
<feComposite in2="hardAlpha" operator="arithmetic" k2="-1" k3="1"/>
<feColorMatrix type="matrix" values="0 0 0 0 0 0 0 0 0 0 0 0 0 0 0 0 0 0 0.85 0"/>
<feBlend mode="normal" in2="shape" result="effect1_innerShadow_40_31044"/>
</filter>
<filter id="filter9_i_40_31044" x="0" y="0" width="921" height="899" filterUnits="userSpaceOnUse" color-interpolation-filters="sRGB">
<feFlood flood-opacity="0" result="BackgroundImageFix"/>
<feBlend mode="normal" in="SourceGraphic" in2="BackgroundImageFix" result="shape"/>
<feColorMatrix in="SourceAlpha" type="matrix" values="0 0 0 0 0 0 0 0 0 0 0 0 0 0 0 0 0 0 127 0" result="hardAlpha"/>
<feOffset dy="4"/>
<feGaussianBlur stdDeviation="2"/>
<feComposite in2="hardAlpha" operator="arithmetic" k2="-1" k3="1"/>
<feColorMatrix type="matrix" values="0 0 0 0 0 0 0 0 0 0 0 0 0 0 0 0 0 0 0.85 0"/>
<feBlend mode="normal" in2="shape" result="effect1_innerShadow_40_31044"/>
</filter>
<filter id="filter10_i_40_31044" x="28.834" y="26.5559" width="863.334" height="842.937" filterUnits="userSpaceOnUse" color-interpolation-filters="sRGB">
<feFlood flood-opacity="0" result="BackgroundImageFix"/>
<feBlend mode="normal" in="SourceGraphic" in2="BackgroundImageFix" result="shape"/>
<feColorMatrix in="SourceAlpha" type="matrix" values="0 0 0 0 0 0 0 0 0 0 0 0 0 0 0 0 0 0 127 0" result="hardAlpha"/>
<feOffset dy="4"/>
<feGaussianBlur stdDeviation="2"/>
<feComposite in2="hardAlpha" operator="arithmetic" k2="-1" k3="1"/>
<feColorMatrix type="matrix" values="0 0 0 0 0 0 0 0 0 0 0 0 0 0 0 0 0 0 0.85 0"/>
<feBlend mode="normal" in2="shape" result="effect1_innerShadow_40_31044"/>
</filter>
<radialGradient id="paint0_angular_40_31044" cx="0" cy="0" r="1" gradientUnits="userSpaceOnUse" gradientTransform="translate(452.615 406.605) rotate(166.791) scale(432.963 743.771)">
<stop offset="0.102502"/>
<stop offset="0.362857" stop-color="#323232"/>
<stop offset="0.370506" stop-color="#1B1B1B"/>
<stop offset="0.865074"/>
<stop offset="0.870611" stop-color="#2C2C2C"/>
</radialGradient>
<radialGradient id="paint1_angular_40_31044" cx="0" cy="0" r="1" gradientUnits="userSpaceOnUse" gradientTransform="translate(235.41 586.192) rotate(166.789) scale(155.554 267.263)">
<stop offset="0.102502"/>
<stop offset="0.362857" stop-color="#323232"/>
<stop offset="0.370506" stop-color="#1B1B1B"/>
<stop offset="0.865074"/>
<stop offset="0.870611" stop-color="#2C2C2C"/>
</radialGradient>
<radialGradient id="paint2_angular_40_31044" cx="0" cy="0" r="1" gradientUnits="userSpaceOnUse" gradientTransform="translate(561.83 584.918) rotate(173.587) scale(460.076 394.368)">
<stop offset="0.102502"/>
<stop offset="0.362857" stop-color="#323232"/>
<stop offset="0.370506" stop-color="#1B1B1B"/>
<stop offset="0.865074"/>
<stop offset="0.870611" stop-color="#2C2C2C"/>
</radialGradient>
<radialGradient id="paint3_angular_40_31044" cx="0" cy="0" r="1" gradientUnits="userSpaceOnUse" gradientTransform="translate(244.483 314.315) rotate(168.77) scale(437.542 645.426)">
<stop offset="0.102502"/>
<stop offset="0.362857" stop-color="#323232"/>
<stop offset="0.370506" stop-color="#1B1B1B"/>
<stop offset="0.865074"/>
<stop offset="0.870611" stop-color="#2C2C2C"/>
</radialGradient>
<radialGradient id="paint4_angular_40_31044" cx="0" cy="0" r="1" gradientUnits="userSpaceOnUse" gradientTransform="translate(437.833 147.655) rotate(172.678) scale(446.972 436.283)">
<stop offset="0.102502"/>
<stop offset="0.362857" stop-color="#323232"/>
<stop offset="0.370506" stop-color="#1B1B1B"/>
<stop offset="0.865074"/>
<stop offset="0.870611" stop-color="#2C2C2C"/>
</radialGradient>
<radialGradient id="paint5_angular_40_31044" cx="0" cy="0" r="1" gradientUnits="userSpaceOnUse" gradientTransform="translate(593.674 255.53) rotate(159.382) scale(312.432 795.167)">
<stop offset="0.102502"/>
<stop offset="0.362857" stop-color="#323232"/>
<stop offset="0.370506" stop-color="#1B1B1B"/>
<stop offset="0.865074"/>
<stop offset="0.870611" stop-color="#2C2C2C"/>
</radialGradient>
<radialGradient id="paint6_angular_40_31044" cx="0" cy="0" r="1" gradientUnits="userSpaceOnUse" gradientTransform="translate(387.351 660.711) rotate(167.155) scale(410.884 687.717)">
<stop offset="0.102502"/>
<stop offset="0.362857" stop-color="#323232"/>
<stop offset="0.370506" stop-color="#1B1B1B"/>
<stop offset="0.865074"/>
<stop offset="0.870611" stop-color="#2C2C2C"/>
</radialGradient>
<radialGradient id="paint7_angular_40_31044" cx="0" cy="0" r="1" gradientUnits="userSpaceOnUse" gradientTransform="translate(225.612 469.479) rotate(154.244) scale(240.622 727.222)">
<stop offset="0.102502"/>
<stop offset="0.362857" stop-color="#323232"/>
<stop offset="0.370506" stop-color="#1B1B1B"/>
<stop offset="0.865074"/>
<stop offset="0.870611" stop-color="#2C2C2C"/>
</radialGradient>
<radialGradient id="paint8_angular_40_31044" cx="0" cy="0" r="1" gradientUnits="userSpaceOnUse" gradientTransform="translate(719.413 441.635) rotate(161.873) scale(332.447 759.095)">
<stop offset="0.102502"/>
<stop offset="0.362857" stop-color="#323232"/>
<stop offset="0.370506" stop-color="#1B1B1B"/>
<stop offset="0.865074"/>
<stop offset="0.870611" stop-color="#2C2C2C"/>
</radialGradient>
<radialGradient id="paint9_angular_40_31044" cx="0" cy="0" r="1" gradientUnits="userSpaceOnUse" gradientTransform="translate(443.268 437.211) rotate(166.794) scale(940.986 1616.18)">
<stop offset="0.102502"/>
<stop offset="0.362857" stop-color="#323232"/>
<stop offset="0.370506" stop-color="#1B1B1B"/>
<stop offset="0.865074"/>
<stop offset="0.870611" stop-color="#2C2C2C"/>
</radialGradient>
<radialGradient id="paint10_angular_40_31044" cx="0" cy="0" r="1" gradientUnits="userSpaceOnUse" gradientTransform="translate(444.348 436.38) rotate(166.794) scale(882.067 1514.95)">
<stop offset="0.102502"/>
<stop offset="0.362857" stop-color="#323232"/>
<stop offset="0.370506" stop-color="#1B1B1B"/>
<stop offset="0.865074"/>
<stop offset="0.870611" stop-color="#2C2C2C"/>
</radialGradient>
<clipPath id="clip0_40_31044">
<rect width="921" height="895" fill="white" transform="matrix(1 0 0 -1 0 895)"/>
</clipPath>
</defs>
</svg>
