<svg width="921" height="768" viewBox="0 0 921 768" fill="none" xmlns="http://www.w3.org/2000/svg">
<g clip-path="url(#clip0_1_4523)">
<g filter="url(#filter0_i_1_4523)">
<path d="M460.499 78.3967L290.55 159.983L248.662 343.279L366.185 490.282H554.814L672.425 343.279L630.537 159.983L460.499 78.3967ZM305.707 171.963L460.499 97.6646L615.292 171.963L653.539 338.942L546.406 472.932H374.711L267.489 339.001L305.707 171.963Z" fill="url(#paint0_angular_1_4523)"/>
<path d="M460.499 78.3967L290.55 159.983L248.662 343.279L366.185 490.282H554.814L672.425 343.279L630.537 159.983L460.499 78.3967ZM305.707 171.963L460.499 97.6646L615.292 171.963L653.539 338.942L546.406 472.932H374.711L267.489 339.001L305.707 171.963Z" fill="#171717"/>
</g>
<g filter="url(#filter1_i_1_4523)">
<path d="M196 386.89L162.135 534.896H314.382L196 386.89ZM173.088 526.044L200.5 406.335L296.265 526.044H173.088Z" fill="url(#paint1_angular_1_4523)"/>
<path d="M196 386.89L162.135 534.896H314.382L196 386.89ZM173.088 526.044L200.5 406.335L296.265 526.044H173.088Z" fill="#171717"/>
</g>
<g filter="url(#filter2_i_1_4523)">
<path d="M751.91 353.4L718.163 395.595L747.943 526.044L340.609 528.11L371.84 567.354H373.972L800.251 565.2L751.91 353.4ZM727.606 397.66L747.44 372.874L789.446 556.377L375.955 558.502L358.578 536.785L758.866 534.896L727.606 397.66Z" fill="url(#paint2_angular_1_4523)"/>
<path d="M751.91 353.4L718.163 395.595L747.943 526.044L340.609 528.11L371.84 567.354H373.972L800.251 565.2L751.91 353.4ZM727.606 397.66L747.44 372.874L789.446 556.377L375.955 558.502L358.578 536.785L758.866 534.896L727.606 397.66Z" fill="#171717"/>
</g>
<g filter="url(#filter3_i_1_4523)">
<path d="M417.991 14.0131L416.096 14.9573L36.8262 198.696L172.999 368.773L184.425 318.907L102.071 216.223L468.286 38.2971L417.991 14.0131ZM50.325 201.765L417.902 23.6913L448.126 38.2086L88.4533 213.036L174.864 321.061L168.41 349.21L50.325 201.765Z" fill="url(#paint3_angular_1_4523)"/>
<path d="M417.991 14.0131L416.096 14.9573L36.8262 198.696L172.999 368.773L184.425 318.907L102.071 216.223L468.286 38.2971L417.991 14.0131ZM50.325 201.765L417.902 23.6913L448.126 38.2086L88.4533 213.036L174.864 321.061L168.41 349.21L50.325 201.765Z" fill="#171717"/>
</g>
<g filter="url(#filter4_i_1_4523)">
<path d="M271.93 -95.1915L223.322 117.257L272.078 93.8585L301 -32.3715L669.021 141.955L656.617 87.6916L654.693 86.7769L271.93 -95.1915ZM235.874 101.471L278.028 -82.6511L648.921 93.7405L656.381 126.198L294.902 -45.03L264.529 87.7506L235.874 101.471Z" fill="url(#paint4_angular_1_4523)"/>
<path d="M271.93 -95.1915L223.322 117.257L272.078 93.8585L301 -32.3715L669.021 141.955L656.617 87.6916L654.693 86.7769L271.93 -95.1915ZM235.874 101.471L278.028 -82.6511L648.921 93.7405L656.381 126.198L294.902 -45.03L264.529 87.7506L235.874 101.471Z" fill="#171717"/>
</g>
<g filter="url(#filter5_i_1_4523)">
<path d="M649.04 -95.2211L452.182 -0.799409L503.01 23.6027L504.904 22.688L620.029 -32.5783L712.626 362.813L746.166 320.884L745.693 318.848L649.04 -95.2211ZM472.312 -0.799409L643.001 -82.7398L736.693 318.907L717.037 343.486L626.068 -45.0596L503.01 13.9539L472.312 -0.799409Z" fill="url(#paint5_angular_1_4523)"/>
<path d="M649.04 -95.2211L452.182 -0.799409L503.01 23.6027L504.904 22.688L620.029 -32.5783L712.626 362.813L746.166 320.884L745.693 318.848L649.04 -95.2211ZM472.312 -0.799409L643.001 -82.7398L736.693 318.907L717.037 343.486L626.068 -45.0596L503.01 13.9539L472.312 -0.799409Z" fill="#171717"/>
</g>
<g filter="url(#filter6_i_1_4523)">
<path d="M204.911 347.941L193.514 397.749L460.53 728.225L596.259 558.502H544.957L460.501 664.136L204.911 347.941ZM202.987 395.565L209.44 367.416L460.53 678.063L549.161 567.354H578.112L460.501 714.297L202.987 395.565Z" fill="url(#paint6_angular_1_4523)"/>
<path d="M204.911 347.941L193.514 397.749L460.53 728.225L596.259 558.502H544.957L460.501 664.136L204.911 347.941ZM202.987 395.565L209.44 367.416L460.53 678.063L549.161 567.354H578.112L460.501 714.297L202.987 395.565Z" fill="#171717"/>
</g>
<g filter="url(#filter7_i_1_4523)">
<path d="M261.777 129.827L213.318 153.079L212.844 155.144L120.75 565.141H338.626L307.425 526.044H173.058L261.777 129.827ZM220.896 159.098L249.315 145.466L162.135 534.896H303.221L320.48 556.466H131.673L220.896 159.098Z" fill="url(#paint7_angular_1_4523)"/>
<path d="M261.777 129.827L213.318 153.079L212.844 155.144L120.75 565.141H338.626L307.425 526.044H173.058L261.777 129.827ZM220.896 159.098L249.315 145.466L162.135 534.896H303.221L320.48 556.466H131.673L220.896 159.098Z" fill="#171717"/>
</g>
<g filter="url(#filter8_i_1_4523)">
<path d="M687.553 104.274L700.105 159.098L818.93 216.223L566.537 534.896H617.809L619.112 533.244L884.174 198.519L687.553 104.274ZM707.683 153.078L700.105 119.972L870.557 201.794L613.576 526.044H584.565L832.547 212.889L707.683 153.078Z" fill="url(#paint8_angular_1_4523)"/>
<path d="M687.553 104.274L700.105 159.098L818.93 216.223L566.537 534.896H617.809L619.112 533.244L884.174 198.519L687.553 104.274ZM707.683 153.078L700.105 119.972L870.557 201.794L613.576 526.044H584.565L832.547 212.889L707.683 153.078Z" fill="#171717"/>
</g>
<g filter="url(#filter9_i_1_4523)">
<path d="M665.44 -127H255.56L0 192.411L0.473644 194.447L91.206 590.723L460.5 768L829.794 590.723L830.268 588.687L921 192.411L919.697 190.788L665.44 -127ZM259.882 -118.295H661.236L911.557 194.477L822.216 584.704L460.5 758.322L98.7843 584.704L9.44327 194.565L259.882 -118.295Z" fill="url(#paint9_angular_1_4523)"/>
<path d="M665.44 -127H255.56L0 192.411L0.473644 194.447L91.206 590.723L460.5 768L829.794 590.723L830.268 588.687L921 192.411L919.697 190.788L665.44 -127ZM259.882 -118.295H661.236L911.557 194.477L822.216 584.704L460.5 758.322L98.7843 584.704L9.44327 194.565L259.882 -118.295Z" fill="#171717"/>
</g>
<g filter="url(#filter10_i_1_4523)">
<path d="M652.623 -100.444H268.379L28.834 198.961L114.327 572.37L460.501 738.493L806.675 572.37L892.168 198.961L652.623 -100.444ZM277.23 -82.1497H643.771L872.305 203.506L790.749 559.682L460.501 718.222L130.253 559.682L48.6974 203.506L277.23 -82.1497Z" fill="url(#paint10_angular_1_4523)"/>
<path d="M652.623 -100.444H268.379L28.834 198.961L114.327 572.37L460.501 738.493L806.675 572.37L892.168 198.961L652.623 -100.444ZM277.23 -82.1497H643.771L872.305 203.506L790.749 559.682L460.501 718.222L130.253 559.682L48.6974 203.506L277.23 -82.1497Z" fill="#171717"/>
</g>
</g>
<g filter="url(#filter11_i_1_4523)">
<path d="M395.963 210.261V277.513H386.816V278.89H419.526V277.513H410.379V210.261H413.958C416.411 210.261 418.598 210.524 420.52 211.048C422.442 211.507 424.166 212.359 425.69 213.604C427.215 214.784 428.573 216.456 429.766 218.619C430.959 220.782 432.053 223.535 433.047 226.878H434.34V208.885H372.002V226.878H373.295C374.289 223.535 375.382 220.782 376.575 218.619C377.769 216.456 379.127 214.784 380.652 213.604C382.176 212.359 383.9 211.507 385.822 211.048C387.744 210.524 389.931 210.261 392.384 210.261H395.963Z" fill="url(#paint11_angular_1_4523)"/>
<path d="M395.963 210.261V277.513H386.816V278.89H419.526V277.513H410.379V210.261H413.958C416.411 210.261 418.598 210.524 420.52 211.048C422.442 211.507 424.166 212.359 425.69 213.604C427.215 214.784 428.573 216.456 429.766 218.619C430.959 220.782 432.053 223.535 433.047 226.878H434.34V208.885H372.002V226.878H373.295C374.289 223.535 375.382 220.782 376.575 218.619C377.769 216.456 379.127 214.784 380.652 213.604C382.176 212.359 383.9 211.507 385.822 211.048C387.744 210.524 389.931 210.261 392.384 210.261H395.963Z" fill="#171717"/>
<path d="M441.904 277.513V278.89H466.859V277.513H460.595V256.472C460.595 253.457 460.926 250.835 461.589 248.607C462.252 246.378 463.114 244.51 464.174 243.002C465.301 241.495 466.593 240.38 468.052 239.659C469.51 238.873 471.034 238.48 472.625 238.48C474.547 238.48 476.072 239.135 477.198 240.446C478.325 241.691 478.889 243.691 478.889 246.444V277.513H472.724V278.89H497.679V277.513H491.018V249.787C491.018 245.46 489.792 242.052 487.34 239.561C484.953 237.07 481.573 235.825 477.198 235.825C474.216 235.825 471.73 236.251 469.742 237.103C467.82 237.955 466.229 238.971 464.97 240.151C463.71 241.265 462.749 242.412 462.086 243.592C461.49 244.707 461.059 245.559 460.794 246.149H460.595V208H441.904V209.376L448.465 209.376V277.513H441.904Z" fill="url(#paint12_angular_1_4523)"/>
<path d="M441.904 277.513V278.89H466.859V277.513H460.595V256.472C460.595 253.457 460.926 250.835 461.589 248.607C462.252 246.378 463.114 244.51 464.174 243.002C465.301 241.495 466.593 240.38 468.052 239.659C469.51 238.873 471.034 238.48 472.625 238.48C474.547 238.48 476.072 239.135 477.198 240.446C478.325 241.691 478.889 243.691 478.889 246.444V277.513H472.724V278.89H497.679V277.513H491.018V249.787C491.018 245.46 489.792 242.052 487.34 239.561C484.953 237.07 481.573 235.825 477.198 235.825C474.216 235.825 471.73 236.251 469.742 237.103C467.82 237.955 466.229 238.971 464.97 240.151C463.71 241.265 462.749 242.412 462.086 243.592C461.49 244.707 461.059 245.559 460.794 246.149H460.595V208H441.904V209.376L448.465 209.376V277.513H441.904Z" fill="#171717"/>
<path d="M533.659 252.835H517.751C517.817 251.13 517.917 249.361 518.049 247.525C518.248 245.624 518.646 243.887 519.242 242.314C519.839 240.675 520.734 239.332 521.927 238.283C523.186 237.234 524.943 236.71 527.196 236.71C528.787 236.71 530.013 237.07 530.875 237.791C531.803 238.512 532.466 239.397 532.863 240.446C533.261 241.495 533.493 242.544 533.559 243.592C533.625 244.641 533.659 245.526 533.659 246.247V252.835ZM517.751 254.211H547.081C547.081 250.868 546.484 248.017 545.291 245.657C544.098 243.232 542.573 241.265 540.718 239.758C538.862 238.25 536.774 237.136 534.454 236.415C532.134 235.694 529.814 235.333 527.494 235.333C524.247 235.333 521.198 235.989 518.348 237.3C515.564 238.545 513.111 240.217 510.99 242.314C508.936 244.346 507.312 246.706 506.119 249.393C504.926 252.081 504.329 254.834 504.329 257.652C504.329 261.192 504.959 264.371 506.218 267.189C507.477 269.942 509.201 272.302 511.388 274.269C513.642 276.169 516.26 277.644 519.242 278.693C522.225 279.676 525.44 280.168 528.886 280.168C531.803 280.168 534.288 279.742 536.343 278.89C538.398 278.103 540.121 277.12 541.513 275.94C542.905 274.695 543.999 273.384 544.794 272.007C545.589 270.565 546.153 269.221 546.484 267.976L545.092 267.484C545.026 268.074 544.694 268.992 544.098 270.237C543.568 271.483 542.706 272.761 541.513 274.072C540.386 275.317 538.895 276.432 537.039 277.415C535.249 278.398 533.029 278.89 530.378 278.89C527.395 278.89 525.075 278.267 523.418 277.022C521.761 275.776 520.502 274.203 519.64 272.302C518.778 270.336 518.248 268.173 518.049 265.813C517.851 263.388 517.751 260.995 517.751 258.635V254.211Z" fill="url(#paint13_angular_1_4523)"/>
<path d="M533.659 252.835H517.751C517.817 251.13 517.917 249.361 518.049 247.525C518.248 245.624 518.646 243.887 519.242 242.314C519.839 240.675 520.734 239.332 521.927 238.283C523.186 237.234 524.943 236.71 527.196 236.71C528.787 236.71 530.013 237.07 530.875 237.791C531.803 238.512 532.466 239.397 532.863 240.446C533.261 241.495 533.493 242.544 533.559 243.592C533.625 244.641 533.659 245.526 533.659 246.247V252.835ZM517.751 254.211H547.081C547.081 250.868 546.484 248.017 545.291 245.657C544.098 243.232 542.573 241.265 540.718 239.758C538.862 238.25 536.774 237.136 534.454 236.415C532.134 235.694 529.814 235.333 527.494 235.333C524.247 235.333 521.198 235.989 518.348 237.3C515.564 238.545 513.111 240.217 510.99 242.314C508.936 244.346 507.312 246.706 506.119 249.393C504.926 252.081 504.329 254.834 504.329 257.652C504.329 261.192 504.959 264.371 506.218 267.189C507.477 269.942 509.201 272.302 511.388 274.269C513.642 276.169 516.26 277.644 519.242 278.693C522.225 279.676 525.44 280.168 528.886 280.168C531.803 280.168 534.288 279.742 536.343 278.89C538.398 278.103 540.121 277.12 541.513 275.94C542.905 274.695 543.999 273.384 544.794 272.007C545.589 270.565 546.153 269.221 546.484 267.976L545.092 267.484C545.026 268.074 544.694 268.992 544.098 270.237C543.568 271.483 542.706 272.761 541.513 274.072C540.386 275.317 538.895 276.432 537.039 277.415C535.249 278.398 533.029 278.89 530.378 278.89C527.395 278.89 525.075 278.267 523.418 277.022C521.761 275.776 520.502 274.203 519.64 272.302C518.778 270.336 518.248 268.173 518.049 265.813C517.851 263.388 517.751 260.995 517.751 258.635V254.211Z" fill="#171717"/>
<path d="M413.25 311.676V291.619H411.659C411.46 292.536 411.129 293.126 410.665 293.389C410.201 293.585 409.505 293.683 408.577 293.683C407.715 293.683 406.655 293.487 405.395 293.094C404.136 292.7 402.711 292.307 401.12 291.914C399.596 291.455 397.906 291.029 396.05 290.635C394.26 290.242 392.305 290.046 390.184 290.046C385.942 290.046 381.6 290.93 377.16 292.7C372.785 294.404 368.808 296.863 365.229 300.074C361.65 303.286 358.7 307.153 356.38 311.676C354.127 316.199 353 321.246 353 326.818C353 331.93 354.027 336.683 356.082 341.074C358.137 345.466 360.854 349.301 364.235 352.578C367.681 355.79 371.658 358.346 376.165 360.247C380.673 362.082 385.345 363 390.184 363C392.305 363 394.326 362.803 396.249 362.41C398.171 362.082 399.927 361.722 401.518 361.329C403.175 360.87 404.633 360.476 405.893 360.149C407.152 359.755 408.179 359.559 408.975 359.559C409.903 359.559 410.599 359.723 411.063 360.05C411.527 360.313 411.924 360.837 412.256 361.624H413.846V340.779H412.256C411.659 343.467 410.731 346.056 409.472 348.547C408.212 351.038 406.655 353.266 404.799 355.233C402.943 357.134 400.789 358.674 398.337 359.854C395.95 361.034 393.266 361.624 390.283 361.624C386.572 361.624 383.357 361.099 380.639 360.05C377.988 359.002 375.801 357.166 374.078 354.544C372.42 351.922 371.194 348.383 370.399 343.926C369.604 339.468 369.206 333.831 369.206 327.014C369.206 321.836 369.405 317.084 369.802 312.758C370.2 308.366 371.095 304.597 372.487 301.451C373.945 298.305 376.066 295.847 378.85 294.077C381.634 292.307 385.445 291.422 390.283 291.422C393.863 291.422 396.845 292.078 399.231 293.389C401.684 294.634 403.705 296.273 405.296 298.305C406.953 300.271 408.279 302.467 409.273 304.892C410.333 307.252 411.228 309.513 411.957 311.676H413.25Z" fill="url(#paint14_angular_1_4523)"/>
<path d="M413.25 311.676V291.619H411.659C411.46 292.536 411.129 293.126 410.665 293.389C410.201 293.585 409.505 293.683 408.577 293.683C407.715 293.683 406.655 293.487 405.395 293.094C404.136 292.7 402.711 292.307 401.12 291.914C399.596 291.455 397.906 291.029 396.05 290.635C394.26 290.242 392.305 290.046 390.184 290.046C385.942 290.046 381.6 290.93 377.16 292.7C372.785 294.404 368.808 296.863 365.229 300.074C361.65 303.286 358.7 307.153 356.38 311.676C354.127 316.199 353 321.246 353 326.818C353 331.93 354.027 336.683 356.082 341.074C358.137 345.466 360.854 349.301 364.235 352.578C367.681 355.79 371.658 358.346 376.165 360.247C380.673 362.082 385.345 363 390.184 363C392.305 363 394.326 362.803 396.249 362.41C398.171 362.082 399.927 361.722 401.518 361.329C403.175 360.87 404.633 360.476 405.893 360.149C407.152 359.755 408.179 359.559 408.975 359.559C409.903 359.559 410.599 359.723 411.063 360.05C411.527 360.313 411.924 360.837 412.256 361.624H413.846V340.779H412.256C411.659 343.467 410.731 346.056 409.472 348.547C408.212 351.038 406.655 353.266 404.799 355.233C402.943 357.134 400.789 358.674 398.337 359.854C395.95 361.034 393.266 361.624 390.283 361.624C386.572 361.624 383.357 361.099 380.639 360.05C377.988 359.002 375.801 357.166 374.078 354.544C372.42 351.922 371.194 348.383 370.399 343.926C369.604 339.468 369.206 333.831 369.206 327.014C369.206 321.836 369.405 317.084 369.802 312.758C370.2 308.366 371.095 304.597 372.487 301.451C373.945 298.305 376.066 295.847 378.85 294.077C381.634 292.307 385.445 291.422 390.283 291.422C393.863 291.422 396.845 292.078 399.231 293.389C401.684 294.634 403.705 296.273 405.296 298.305C406.953 300.271 408.279 302.467 409.273 304.892C410.333 307.252 411.228 309.513 411.957 311.676H413.25Z" fill="#171717"/>
<path d="M423.26 290.734V292.11H429.921V360.247H423.26V361.624H448.712V360.247H442.05V290.734H423.26Z" fill="url(#paint15_angular_1_4523)"/>
<path d="M423.26 290.734V292.11H429.921V360.247H423.26V361.624H448.712V360.247H442.05V290.734H423.26Z" fill="#171717"/>
<path d="M453.726 319.444V320.82H460.387V349.235C460.387 354.02 461.613 357.428 464.065 359.46C466.518 361.427 470.064 362.41 474.704 362.41C476.162 362.41 477.653 362.213 479.178 361.82C480.702 361.492 482.127 360.968 483.453 360.247C484.845 359.46 486.071 358.543 487.131 357.494C488.192 356.38 488.987 355.102 489.518 353.659H489.716V361.624H508.209V360.247H501.647V319.444H482.956V320.82H489.518V346.187C489.518 347.957 489.252 349.661 488.722 351.3C488.258 352.938 487.562 354.381 486.634 355.626C485.773 356.806 484.712 357.756 483.453 358.477C482.193 359.198 480.802 359.559 479.277 359.559C476.758 359.559 475.002 358.707 474.008 357.002C473.013 355.233 472.516 353.102 472.516 350.612V319.444H453.726Z" fill="url(#paint16_angular_1_4523)"/>
<path d="M453.726 319.444V320.82H460.387V349.235C460.387 354.02 461.613 357.428 464.065 359.46C466.518 361.427 470.064 362.41 474.704 362.41C476.162 362.41 477.653 362.213 479.178 361.82C480.702 361.492 482.127 360.968 483.453 360.247C484.845 359.46 486.071 358.543 487.131 357.494C488.192 356.38 488.987 355.102 489.518 353.659H489.716V361.624H508.209V360.247H501.647V319.444H482.956V320.82H489.518V346.187C489.518 347.957 489.252 349.661 488.722 351.3C488.258 352.938 487.562 354.381 486.634 355.626C485.773 356.806 484.712 357.756 483.453 358.477C482.193 359.198 480.802 359.559 479.277 359.559C476.758 359.559 475.002 358.707 474.008 357.002C473.013 355.233 472.516 353.102 472.516 350.612V319.444H453.726Z" fill="#171717"/>
<path d="M533.594 340.583C533.594 338.42 533.694 336.093 533.892 333.602C534.158 331.111 534.655 328.817 535.384 326.719C536.113 324.622 537.206 322.885 538.665 321.508C540.123 320.132 542.078 319.444 544.531 319.444C546.254 319.444 547.679 319.804 548.806 320.525C549.933 321.246 550.86 322.426 551.59 324.065C552.319 325.703 552.816 327.899 553.081 330.652C553.412 333.34 553.578 336.65 553.578 340.583C553.578 343.795 553.479 346.711 553.28 349.333C553.147 351.89 552.783 354.086 552.186 355.921C551.656 357.756 550.827 359.165 549.701 360.149C548.64 361.132 547.182 361.624 545.326 361.624C542.542 361.624 540.355 360.935 538.764 359.559C537.24 358.117 536.08 356.347 535.284 354.249C534.489 352.086 533.992 349.792 533.793 347.367C533.66 344.876 533.594 342.615 533.594 340.583ZM521.465 292.11V360.247H514.903V361.624H533.395V354.348H533.594C534.655 357.101 536.113 359.231 537.969 360.739C539.891 362.181 542.343 362.902 545.326 362.902C548.574 362.902 551.523 362.279 554.175 361.034C556.826 359.788 559.079 358.149 560.935 356.118C562.857 354.02 564.349 351.628 565.409 348.94C566.47 346.253 567 343.434 567 340.484C567 338.19 566.569 335.732 565.708 333.11C564.912 330.488 563.62 328.063 561.83 325.835C560.107 323.606 557.886 321.771 555.169 320.329C552.451 318.821 549.17 318.067 545.326 318.067C542.343 318.067 539.924 318.755 538.068 320.132C536.212 321.508 534.787 323.573 533.793 326.326H533.594V290.734H514.903V292.11H521.465Z" fill="url(#paint17_angular_1_4523)"/>
<path d="M533.594 340.583C533.594 338.42 533.694 336.093 533.892 333.602C534.158 331.111 534.655 328.817 535.384 326.719C536.113 324.622 537.206 322.885 538.665 321.508C540.123 320.132 542.078 319.444 544.531 319.444C546.254 319.444 547.679 319.804 548.806 320.525C549.933 321.246 550.86 322.426 551.59 324.065C552.319 325.703 552.816 327.899 553.081 330.652C553.412 333.34 553.578 336.65 553.578 340.583C553.578 343.795 553.479 346.711 553.28 349.333C553.147 351.89 552.783 354.086 552.186 355.921C551.656 357.756 550.827 359.165 549.701 360.149C548.64 361.132 547.182 361.624 545.326 361.624C542.542 361.624 540.355 360.935 538.764 359.559C537.24 358.117 536.08 356.347 535.284 354.249C534.489 352.086 533.992 349.792 533.793 347.367C533.66 344.876 533.594 342.615 533.594 340.583ZM521.465 292.11V360.247H514.903V361.624H533.395V354.348H533.594C534.655 357.101 536.113 359.231 537.969 360.739C539.891 362.181 542.343 362.902 545.326 362.902C548.574 362.902 551.523 362.279 554.175 361.034C556.826 359.788 559.079 358.149 560.935 356.118C562.857 354.02 564.349 351.628 565.409 348.94C566.47 346.253 567 343.434 567 340.484C567 338.19 566.569 335.732 565.708 333.11C564.912 330.488 563.62 328.063 561.83 325.835C560.107 323.606 557.886 321.771 555.169 320.329C552.451 318.821 549.17 318.067 545.326 318.067C542.343 318.067 539.924 318.755 538.068 320.132C536.212 321.508 534.787 323.573 533.793 326.326H533.594V290.734H514.903V292.11H521.465Z" fill="#171717"/>
</g>
<defs>
<filter id="filter0_i_1_4523" x="248.662" y="78.3967" width="423.764" height="415.885" filterUnits="userSpaceOnUse" color-interpolation-filters="sRGB">
<feFlood flood-opacity="0" result="BackgroundImageFix"/>
<feBlend mode="normal" in="SourceGraphic" in2="BackgroundImageFix" result="shape"/>
<feColorMatrix in="SourceAlpha" type="matrix" values="0 0 0 0 0 0 0 0 0 0 0 0 0 0 0 0 0 0 127 0" result="hardAlpha"/>
<feOffset dy="4"/>
<feGaussianBlur stdDeviation="2"/>
<feComposite in2="hardAlpha" operator="arithmetic" k2="-1" k3="1"/>
<feColorMatrix type="matrix" values="0 0 0 0 0 0 0 0 0 0 0 0 0 0 0 0 0 0 0.85 0"/>
<feBlend mode="normal" in2="shape" result="effect1_innerShadow_1_4523"/>
</filter>
<filter id="filter1_i_1_4523" x="162.135" y="386.89" width="152.246" height="152.006" filterUnits="userSpaceOnUse" color-interpolation-filters="sRGB">
<feFlood flood-opacity="0" result="BackgroundImageFix"/>
<feBlend mode="normal" in="SourceGraphic" in2="BackgroundImageFix" result="shape"/>
<feColorMatrix in="SourceAlpha" type="matrix" values="0 0 0 0 0 0 0 0 0 0 0 0 0 0 0 0 0 0 127 0" result="hardAlpha"/>
<feOffset dy="4"/>
<feGaussianBlur stdDeviation="2"/>
<feComposite in2="hardAlpha" operator="arithmetic" k2="-1" k3="1"/>
<feColorMatrix type="matrix" values="0 0 0 0 0 0 0 0 0 0 0 0 0 0 0 0 0 0 0.85 0"/>
<feBlend mode="normal" in2="shape" result="effect1_innerShadow_1_4523"/>
</filter>
<filter id="filter2_i_1_4523" x="340.609" y="353.4" width="459.641" height="217.954" filterUnits="userSpaceOnUse" color-interpolation-filters="sRGB">
<feFlood flood-opacity="0" result="BackgroundImageFix"/>
<feBlend mode="normal" in="SourceGraphic" in2="BackgroundImageFix" result="shape"/>
<feColorMatrix in="SourceAlpha" type="matrix" values="0 0 0 0 0 0 0 0 0 0 0 0 0 0 0 0 0 0 127 0" result="hardAlpha"/>
<feOffset dy="4"/>
<feGaussianBlur stdDeviation="2"/>
<feComposite in2="hardAlpha" operator="arithmetic" k2="-1" k3="1"/>
<feColorMatrix type="matrix" values="0 0 0 0 0 0 0 0 0 0 0 0 0 0 0 0 0 0 0.85 0"/>
<feBlend mode="normal" in2="shape" result="effect1_innerShadow_1_4523"/>
</filter>
<filter id="filter3_i_1_4523" x="36.8262" y="14.0132" width="431.459" height="358.76" filterUnits="userSpaceOnUse" color-interpolation-filters="sRGB">
<feFlood flood-opacity="0" result="BackgroundImageFix"/>
<feBlend mode="normal" in="SourceGraphic" in2="BackgroundImageFix" result="shape"/>
<feColorMatrix in="SourceAlpha" type="matrix" values="0 0 0 0 0 0 0 0 0 0 0 0 0 0 0 0 0 0 127 0" result="hardAlpha"/>
<feOffset dy="4"/>
<feGaussianBlur stdDeviation="2"/>
<feComposite in2="hardAlpha" operator="arithmetic" k2="-1" k3="1"/>
<feColorMatrix type="matrix" values="0 0 0 0 0 0 0 0 0 0 0 0 0 0 0 0 0 0 0.85 0"/>
<feBlend mode="normal" in2="shape" result="effect1_innerShadow_1_4523"/>
</filter>
<filter id="filter4_i_1_4523" x="223.322" y="-95.1914" width="445.699" height="241.146" filterUnits="userSpaceOnUse" color-interpolation-filters="sRGB">
<feFlood flood-opacity="0" result="BackgroundImageFix"/>
<feBlend mode="normal" in="SourceGraphic" in2="BackgroundImageFix" result="shape"/>
<feColorMatrix in="SourceAlpha" type="matrix" values="0 0 0 0 0 0 0 0 0 0 0 0 0 0 0 0 0 0 127 0" result="hardAlpha"/>
<feOffset dy="4"/>
<feGaussianBlur stdDeviation="2"/>
<feComposite in2="hardAlpha" operator="arithmetic" k2="-1" k3="1"/>
<feColorMatrix type="matrix" values="0 0 0 0 0 0 0 0 0 0 0 0 0 0 0 0 0 0 0.85 0"/>
<feBlend mode="normal" in2="shape" result="effect1_innerShadow_1_4523"/>
</filter>
<filter id="filter5_i_1_4523" x="452.182" y="-95.2212" width="293.984" height="462.034" filterUnits="userSpaceOnUse" color-interpolation-filters="sRGB">
<feFlood flood-opacity="0" result="BackgroundImageFix"/>
<feBlend mode="normal" in="SourceGraphic" in2="BackgroundImageFix" result="shape"/>
<feColorMatrix in="SourceAlpha" type="matrix" values="0 0 0 0 0 0 0 0 0 0 0 0 0 0 0 0 0 0 127 0" result="hardAlpha"/>
<feOffset dy="4"/>
<feGaussianBlur stdDeviation="2"/>
<feComposite in2="hardAlpha" operator="arithmetic" k2="-1" k3="1"/>
<feColorMatrix type="matrix" values="0 0 0 0 0 0 0 0 0 0 0 0 0 0 0 0 0 0 0.85 0"/>
<feBlend mode="normal" in2="shape" result="effect1_innerShadow_1_4523"/>
</filter>
<filter id="filter6_i_1_4523" x="193.514" y="347.941" width="402.744" height="384.283" filterUnits="userSpaceOnUse" color-interpolation-filters="sRGB">
<feFlood flood-opacity="0" result="BackgroundImageFix"/>
<feBlend mode="normal" in="SourceGraphic" in2="BackgroundImageFix" result="shape"/>
<feColorMatrix in="SourceAlpha" type="matrix" values="0 0 0 0 0 0 0 0 0 0 0 0 0 0 0 0 0 0 127 0" result="hardAlpha"/>
<feOffset dy="4"/>
<feGaussianBlur stdDeviation="2"/>
<feComposite in2="hardAlpha" operator="arithmetic" k2="-1" k3="1"/>
<feColorMatrix type="matrix" values="0 0 0 0 0 0 0 0 0 0 0 0 0 0 0 0 0 0 0.85 0"/>
<feBlend mode="normal" in2="shape" result="effect1_innerShadow_1_4523"/>
</filter>
<filter id="filter7_i_1_4523" x="120.75" y="129.827" width="217.877" height="439.314" filterUnits="userSpaceOnUse" color-interpolation-filters="sRGB">
<feFlood flood-opacity="0" result="BackgroundImageFix"/>
<feBlend mode="normal" in="SourceGraphic" in2="BackgroundImageFix" result="shape"/>
<feColorMatrix in="SourceAlpha" type="matrix" values="0 0 0 0 0 0 0 0 0 0 0 0 0 0 0 0 0 0 127 0" result="hardAlpha"/>
<feOffset dy="4"/>
<feGaussianBlur stdDeviation="2"/>
<feComposite in2="hardAlpha" operator="arithmetic" k2="-1" k3="1"/>
<feColorMatrix type="matrix" values="0 0 0 0 0 0 0 0 0 0 0 0 0 0 0 0 0 0 0.85 0"/>
<feBlend mode="normal" in2="shape" result="effect1_innerShadow_1_4523"/>
</filter>
<filter id="filter8_i_1_4523" x="566.537" y="104.274" width="317.637" height="434.622" filterUnits="userSpaceOnUse" color-interpolation-filters="sRGB">
<feFlood flood-opacity="0" result="BackgroundImageFix"/>
<feBlend mode="normal" in="SourceGraphic" in2="BackgroundImageFix" result="shape"/>
<feColorMatrix in="SourceAlpha" type="matrix" values="0 0 0 0 0 0 0 0 0 0 0 0 0 0 0 0 0 0 127 0" result="hardAlpha"/>
<feOffset dy="4"/>
<feGaussianBlur stdDeviation="2"/>
<feComposite in2="hardAlpha" operator="arithmetic" k2="-1" k3="1"/>
<feColorMatrix type="matrix" values="0 0 0 0 0 0 0 0 0 0 0 0 0 0 0 0 0 0 0.85 0"/>
<feBlend mode="normal" in2="shape" result="effect1_innerShadow_1_4523"/>
</filter>
<filter id="filter9_i_1_4523" x="0" y="-127" width="921" height="899" filterUnits="userSpaceOnUse" color-interpolation-filters="sRGB">
<feFlood flood-opacity="0" result="BackgroundImageFix"/>
<feBlend mode="normal" in="SourceGraphic" in2="BackgroundImageFix" result="shape"/>
<feColorMatrix in="SourceAlpha" type="matrix" values="0 0 0 0 0 0 0 0 0 0 0 0 0 0 0 0 0 0 127 0" result="hardAlpha"/>
<feOffset dy="4"/>
<feGaussianBlur stdDeviation="2"/>
<feComposite in2="hardAlpha" operator="arithmetic" k2="-1" k3="1"/>
<feColorMatrix type="matrix" values="0 0 0 0 0 0 0 0 0 0 0 0 0 0 0 0 0 0 0.85 0"/>
<feBlend mode="normal" in2="shape" result="effect1_innerShadow_1_4523"/>
</filter>
<filter id="filter10_i_1_4523" x="28.834" y="-100.444" width="863.334" height="842.937" filterUnits="userSpaceOnUse" color-interpolation-filters="sRGB">
<feFlood flood-opacity="0" result="BackgroundImageFix"/>
<feBlend mode="normal" in="SourceGraphic" in2="BackgroundImageFix" result="shape"/>
<feColorMatrix in="SourceAlpha" type="matrix" values="0 0 0 0 0 0 0 0 0 0 0 0 0 0 0 0 0 0 127 0" result="hardAlpha"/>
<feOffset dy="4"/>
<feGaussianBlur stdDeviation="2"/>
<feComposite in2="hardAlpha" operator="arithmetic" k2="-1" k3="1"/>
<feColorMatrix type="matrix" values="0 0 0 0 0 0 0 0 0 0 0 0 0 0 0 0 0 0 0.85 0"/>
<feBlend mode="normal" in2="shape" result="effect1_innerShadow_1_4523"/>
</filter>
<filter id="filter11_i_1_4523" x="353" y="208" width="214" height="159" filterUnits="userSpaceOnUse" color-interpolation-filters="sRGB">
<feFlood flood-opacity="0" result="BackgroundImageFix"/>
<feBlend mode="normal" in="SourceGraphic" in2="BackgroundImageFix" result="shape"/>
<feColorMatrix in="SourceAlpha" type="matrix" values="0 0 0 0 0 0 0 0 0 0 0 0 0 0 0 0 0 0 127 0" result="hardAlpha"/>
<feOffset dy="4"/>
<feGaussianBlur stdDeviation="2"/>
<feComposite in2="hardAlpha" operator="arithmetic" k2="-1" k3="1"/>
<feColorMatrix type="matrix" values="0 0 0 0 0 0 0 0 0 0 0 0 0 0 0 0 0 0 0.85 0"/>
<feBlend mode="normal" in2="shape" result="effect1_innerShadow_1_4523"/>
</filter>
<radialGradient id="paint0_angular_1_4523" cx="0" cy="0" r="1" gradientUnits="userSpaceOnUse" gradientTransform="translate(452.615 279.604) rotate(166.791) scale(432.963 743.771)">
<stop offset="0.102502"/>
<stop offset="0.362857" stop-color="#323232"/>
<stop offset="0.370506" stop-color="#1B1B1B"/>
<stop offset="0.865074"/>
<stop offset="0.870611" stop-color="#2C2C2C"/>
</radialGradient>
<radialGradient id="paint1_angular_1_4523" cx="0" cy="0" r="1" gradientUnits="userSpaceOnUse" gradientTransform="translate(235.41 459.192) rotate(166.789) scale(155.554 267.263)">
<stop offset="0.102502"/>
<stop offset="0.362857" stop-color="#323232"/>
<stop offset="0.370506" stop-color="#1B1B1B"/>
<stop offset="0.865074"/>
<stop offset="0.870611" stop-color="#2C2C2C"/>
</radialGradient>
<radialGradient id="paint2_angular_1_4523" cx="0" cy="0" r="1" gradientUnits="userSpaceOnUse" gradientTransform="translate(561.83 457.917) rotate(173.587) scale(460.076 394.368)">
<stop offset="0.102502"/>
<stop offset="0.362857" stop-color="#323232"/>
<stop offset="0.370506" stop-color="#1B1B1B"/>
<stop offset="0.865074"/>
<stop offset="0.870611" stop-color="#2C2C2C"/>
</radialGradient>
<radialGradient id="paint3_angular_1_4523" cx="0" cy="0" r="1" gradientUnits="userSpaceOnUse" gradientTransform="translate(244.483 187.315) rotate(168.77) scale(437.542 645.426)">
<stop offset="0.102502"/>
<stop offset="0.362857" stop-color="#323232"/>
<stop offset="0.370506" stop-color="#1B1B1B"/>
<stop offset="0.865074"/>
<stop offset="0.870611" stop-color="#2C2C2C"/>
</radialGradient>
<radialGradient id="paint4_angular_1_4523" cx="0" cy="0" r="1" gradientUnits="userSpaceOnUse" gradientTransform="translate(437.833 20.6553) rotate(172.678) scale(446.972 436.283)">
<stop offset="0.102502"/>
<stop offset="0.362857" stop-color="#323232"/>
<stop offset="0.370506" stop-color="#1B1B1B"/>
<stop offset="0.865074"/>
<stop offset="0.870611" stop-color="#2C2C2C"/>
</radialGradient>
<radialGradient id="paint5_angular_1_4523" cx="0" cy="0" r="1" gradientUnits="userSpaceOnUse" gradientTransform="translate(593.674 128.53) rotate(159.382) scale(312.432 795.167)">
<stop offset="0.102502"/>
<stop offset="0.362857" stop-color="#323232"/>
<stop offset="0.370506" stop-color="#1B1B1B"/>
<stop offset="0.865074"/>
<stop offset="0.870611" stop-color="#2C2C2C"/>
</radialGradient>
<radialGradient id="paint6_angular_1_4523" cx="0" cy="0" r="1" gradientUnits="userSpaceOnUse" gradientTransform="translate(387.351 533.711) rotate(167.155) scale(410.884 687.717)">
<stop offset="0.102502"/>
<stop offset="0.362857" stop-color="#323232"/>
<stop offset="0.370506" stop-color="#1B1B1B"/>
<stop offset="0.865074"/>
<stop offset="0.870611" stop-color="#2C2C2C"/>
</radialGradient>
<radialGradient id="paint7_angular_1_4523" cx="0" cy="0" r="1" gradientUnits="userSpaceOnUse" gradientTransform="translate(225.612 342.48) rotate(154.244) scale(240.622 727.222)">
<stop offset="0.102502"/>
<stop offset="0.362857" stop-color="#323232"/>
<stop offset="0.370506" stop-color="#1B1B1B"/>
<stop offset="0.865074"/>
<stop offset="0.870611" stop-color="#2C2C2C"/>
</radialGradient>
<radialGradient id="paint8_angular_1_4523" cx="0" cy="0" r="1" gradientUnits="userSpaceOnUse" gradientTransform="translate(719.413 314.635) rotate(161.873) scale(332.447 759.095)">
<stop offset="0.102502"/>
<stop offset="0.362857" stop-color="#323232"/>
<stop offset="0.370506" stop-color="#1B1B1B"/>
<stop offset="0.865074"/>
<stop offset="0.870611" stop-color="#2C2C2C"/>
</radialGradient>
<radialGradient id="paint9_angular_1_4523" cx="0" cy="0" r="1" gradientUnits="userSpaceOnUse" gradientTransform="translate(443.268 310.211) rotate(166.794) scale(940.986 1616.18)">
<stop offset="0.102502"/>
<stop offset="0.362857" stop-color="#323232"/>
<stop offset="0.370506" stop-color="#1B1B1B"/>
<stop offset="0.865074"/>
<stop offset="0.870611" stop-color="#2C2C2C"/>
</radialGradient>
<radialGradient id="paint10_angular_1_4523" cx="0" cy="0" r="1" gradientUnits="userSpaceOnUse" gradientTransform="translate(444.348 309.38) rotate(166.794) scale(882.067 1514.95)">
<stop offset="0.102502"/>
<stop offset="0.362857" stop-color="#323232"/>
<stop offset="0.370506" stop-color="#1B1B1B"/>
<stop offset="0.865074"/>
<stop offset="0.870611" stop-color="#2C2C2C"/>
</radialGradient>
<radialGradient id="paint11_angular_1_4523" cx="0" cy="0" r="1" gradientUnits="userSpaceOnUse" gradientTransform="translate(455.996 287.282) rotate(-170.079) scale(216.093 283.202)">
<stop offset="0.102502"/>
<stop offset="0.362857" stop-color="#323232"/>
<stop offset="0.370506" stop-color="#1B1B1B"/>
<stop offset="0.865074"/>
<stop offset="0.870611" stop-color="#2C2C2C"/>
</radialGradient>
<radialGradient id="paint12_angular_1_4523" cx="0" cy="0" r="1" gradientUnits="userSpaceOnUse" gradientTransform="translate(455.996 287.282) rotate(-170.079) scale(216.093 283.202)">
<stop offset="0.102502"/>
<stop offset="0.362857" stop-color="#323232"/>
<stop offset="0.370506" stop-color="#1B1B1B"/>
<stop offset="0.865074"/>
<stop offset="0.870611" stop-color="#2C2C2C"/>
</radialGradient>
<radialGradient id="paint13_angular_1_4523" cx="0" cy="0" r="1" gradientUnits="userSpaceOnUse" gradientTransform="translate(455.996 287.282) rotate(-170.079) scale(216.093 283.202)">
<stop offset="0.102502"/>
<stop offset="0.362857" stop-color="#323232"/>
<stop offset="0.370506" stop-color="#1B1B1B"/>
<stop offset="0.865074"/>
<stop offset="0.870611" stop-color="#2C2C2C"/>
</radialGradient>
<radialGradient id="paint14_angular_1_4523" cx="0" cy="0" r="1" gradientUnits="userSpaceOnUse" gradientTransform="translate(455.996 287.282) rotate(-170.079) scale(216.093 283.202)">
<stop offset="0.102502"/>
<stop offset="0.362857" stop-color="#323232"/>
<stop offset="0.370506" stop-color="#1B1B1B"/>
<stop offset="0.865074"/>
<stop offset="0.870611" stop-color="#2C2C2C"/>
</radialGradient>
<radialGradient id="paint15_angular_1_4523" cx="0" cy="0" r="1" gradientUnits="userSpaceOnUse" gradientTransform="translate(455.996 287.282) rotate(-170.079) scale(216.093 283.202)">
<stop offset="0.102502"/>
<stop offset="0.362857" stop-color="#323232"/>
<stop offset="0.370506" stop-color="#1B1B1B"/>
<stop offset="0.865074"/>
<stop offset="0.870611" stop-color="#2C2C2C"/>
</radialGradient>
<radialGradient id="paint16_angular_1_4523" cx="0" cy="0" r="1" gradientUnits="userSpaceOnUse" gradientTransform="translate(455.996 287.282) rotate(-170.079) scale(216.093 283.202)">
<stop offset="0.102502"/>
<stop offset="0.362857" stop-color="#323232"/>
<stop offset="0.370506" stop-color="#1B1B1B"/>
<stop offset="0.865074"/>
<stop offset="0.870611" stop-color="#2C2C2C"/>
</radialGradient>
<radialGradient id="paint17_angular_1_4523" cx="0" cy="0" r="1" gradientUnits="userSpaceOnUse" gradientTransform="translate(455.996 287.282) rotate(-170.079) scale(216.093 283.202)">
<stop offset="0.102502"/>
<stop offset="0.362857" stop-color="#323232"/>
<stop offset="0.370506" stop-color="#1B1B1B"/>
<stop offset="0.865074"/>
<stop offset="0.870611" stop-color="#2C2C2C"/>
</radialGradient>
<clipPath id="clip0_1_4523">
<rect width="921" height="895" fill="white" transform="matrix(1 0 0 -1 0 768)"/>
</clipPath>
</defs>
</svg>
